<svg xmlns="http://www.w3.org/2000/svg" xml:space="preserve" viewBox="0 0 900 900"><path fill="#fffffe" d="M1 346V1h900v900H1zm227.397-103.905s.422.004.68.652c3.709 1.22 7.417 2.442 11.62 4.007.38.118.76.237 1.38.997 8.646 3.363 17.29 6.726 26.369 10.293 0 0 .477.004.696.665 6.296 2.32 12.592 4.64 19.403 7.246.383.065.765.13 1.43.742.684.177 1.367.354 2.672.884.47.035.94.07 1.758.71l12.047 4.79s.476.04.688.711c4.555 5.836 3.632 8.727-2.938 10.412-1.714.44-3.075 2.253-4.599 3.435 1.438 1.486 2.876 2.97 4.558 5.22.431 2.431.862 4.863.854 7.757-.28.32-.56.64-1.663.68-6.742.811-13.479 1.666-20.226 2.427-13.801 1.557-27.606 3.077-41.413 4.584-7.403.807-14.829 1.428-22.214 2.37-5.574.71-11.148 1.594-16.613 2.866-1.319.307-2.209 2.457-3.296 3.76 1.53 1.067 3.059 2.135 5.327 3.419 1.023-.013 2.045-.025 3.796.378 5.096-.039 10.192-.077 16.196.006 3.348.02 6.695.04 10.742.5 9.384.352 18.766.81 28.154 1.013 4.756.103 9.522-.251 15.068-.018 7.36.36 14.725.644 22.078 1.121 2.55.165 5.068.81 7.501 2.109-1.354 8.209-2.747 16.412-3.972 24.64-.079.525 1.138 1.243 2.63 2.101 31.145.048 62.29.103 93.435.128 2.145.002 4.29-.225 7.329-.041 20.949.016 41.899.109 62.848.027 19.444-.075 38.888-.337 59.03-.268.725-.121 1.451-.242 2.38-.14.365.07.582-.063 1.448-.458 13.216-3.845 26.483-7.491 37.476-16.487 4.089-3.346 8.626-6.145 13.362-8.446 1.788.237 3.572.648 5.364.684 23.957.476 47.916.886 71.873 1.345 7.12.136 14.235.407 21.354.547 5.156.102 10.333.353 15.458-.035 1.479-.112 2.808-2.207 4.205-3.393-1.302-.959-2.485-2.464-3.928-2.778-5.328-1.16-10.736-1.954-16.122-2.835-8.507-1.39-17.01-2.805-25.533-4.094a4117 4117 0 0 0-39.278-5.752c-3.626-.512-6.107-2.102-5.922-5.998.184-3.872 3.1-4.567 6.362-4.85 6.783-.591 13.562-1.272 20.307-2.182 1.122-.151 2.719-1.52 2.913-2.55.221-1.169-.537-3.187-1.505-3.758-1.46-.862-3.462-1.01-5.249-1.077-9.308-.354-18.621-.586-28.058-1.694.424-1.76.658-3.593 1.305-5.266 3.064-7.923 4.641-15.995 4.147-24.587-.26-4.497.811-9.071 2.007-13.628 3.003-1.365 6.045-2.653 9.004-4.108 16.11-7.924 32.238-15.815 48.235-23.963 1.487-.758 2.096-3.24 3.113-4.922-1.777-.483-3.765-1.738-5.295-1.319-7.8 2.138-15.46 4.788-23.212 7.11-10.943 3.276-21.925 6.423-33.145 8.651l-.471-9.926c-1.275 2.496-2.665 6.01-4.737 9.061-2.174 3.2-5.003 5.955-8.386 8.685-8.724 2.446-17.448 4.891-26.87 7.061-.497-.004-.994-.009-1.917-.592-3.84-2.286-2.687-4.955-.932-8.04 1.033-1.815 2.106-4.4 1.526-6.071-.41-1.181-3.53-1.841-5.495-1.981-4.719-.337-6.758-3.075-4.609-7.264.931-1.815 2.836-3.126 4.284-4.68 12.113-12.993 24.198-26.013 36.343-38.977 8.643-9.224 17.48-18.27 25.937-27.659 1.36-1.51 1.187-4.403 1.723-6.656-2.08.094-4.682-.58-6.147.417-5.847 3.978-11.381 8.423-16.955 12.793-13.96 10.945-27.884 21.935-41.81 32.923-6.375 5.03-12.579 10.297-19.176 15.016-1.696 1.214-5.043 1.65-6.777.767-1.245-.634-1.65-4.122-1.422-6.227.788-7.287.956-7.269-6.093-6.028-6.538 1.152-9.157-1.558-6.688-7.518 7.379-17.81 15.015-35.513 22.568-53.25 4.82-11.32 9.68-22.621 14.5-33.94.959-2.25 2.782-5.248-.551-6.316-1.708-.547-5.047 1.146-6.374 2.83-3.167 4.021-5.605 8.621-8.288 13.017-8.83 14.466-17.585 28.977-26.475 43.406-5.37 8.717-10.752 17.44-16.57 25.855-1.18 1.707-4.312 2.584-6.605 2.705-.742.04-1.708-3.543-2.514-5.492-.77-1.863-1.465-3.756-2.194-5.636-1.895.739-3.777 1.516-5.69 2.205-2.045.736-4.529 2.407-6.065 1.79-1.494-.601-2.902-3.608-2.85-5.517.415-15.082 1.189-30.154 1.854-45.23.007-.165.049-.33.058-.495.986-17.086 2.055-34.167 2.82-51.263.072-1.615-1.763-3.316-2.712-4.978-1.584 1.38-4.101 2.492-4.586 4.186-1.766 6.171-2.881 12.53-4.188 18.83-2.186 10.543-4.332 21.094-6.493 31.641-1.865 9.1-3.726 18.202-5.592 27.303-1.298 6.332-2.26 12.764-4.095 18.937-.604 2.033-3.257 4.118-5.393 4.745-1.013.297-3.087-2.717-4.546-4.35-1.189-1.333-2.177-2.843-3.254-4.275-1.719 1.296-3.892 2.273-5.067 3.95-2.923 4.167-6.378 4.582-8.8.063-1.99-3.717-2.986-7.993-4.224-12.082-4.139-13.668-8.158-27.372-12.28-41.045-4.022-13.34-8.122-26.657-12.168-39.99-.792-2.611-2.148-5.264-5.095-3.576-1.619.927-3.1 4.057-2.854 5.963 1.697 13.156 3.95 26.238 5.849 39.368.996 6.886 1.493 13.845 2.475 20.733 1.754 12.29 3.869 24.533 5.41 36.848.25 1.996-1.19 4.898-2.804 6.147-.84.65-3.787-1.351-5.743-2.24-1.98-.9-3.911-1.906-5.864-2.865-.854 1.829-2.024 3.579-2.5 5.5-1.218 4.908-4.493 6.32-8.156 2.957-2.408-2.21-4.363-4.943-6.354-7.569-8.72-11.495-17.43-22.995-26.043-34.57-8.623-11.59-16.988-23.375-25.82-34.801-1.363-1.762-4.624-2.057-7.006-3.03-.082 2.571-.979 5.484-.076 7.643 1.835 4.389 4.747 8.313 7.03 12.53 7.106 13.132 14.137 26.304 21.176 39.472 6.096 11.406 12.285 22.765 18.1 34.312.808 1.602.454 5.048-.717 6.04-1.207 1.021-4.08.181-6.207-.02-2.134-.201-4.6-1.401-6.24-.66-1.043.47-1.347 3.748-1.11 5.658.678 5.43-1.663 8.018-6.603 6.054-3.614-1.437-6.773-4.034-10.103-6.163-13.833-8.842-27.717-17.608-41.46-26.588-10.282-6.719-20.392-13.702-30.548-20.613-2.485-1.69-5.364-2.577-6.828.385-.707 1.431.508 4.806 1.936 6.141 10.188 9.519 20.61 18.79 31.085 27.995 1.535 1.35 3.74 1.937 5.7 2.81 0 0-.073.058-.015.74 5.688 5.012 11.376 10.024 17.429 15.257 0 0 .414.1.507.8 7 6.45 14 12.9 21.09 20.003.213.382.425.765.346 1.867-.381 1.502-.763 3.004-1.93 4.533-1.467.178-2.95.593-4.397.494-7.667-.528-8.368.414-5.326 7.5 1.904 4.436.055 7.397-4.695 7.049-3.787-.278-7.6-.809-11.29-1.691-15.277-3.652-30.5-7.53-45.767-11.226-11.75-2.844-23.53-5.56-35.311-8.273-1.582-.364-3.38-.843-4.83-.42-1.368.4-3.269 1.843-3.372 2.97-.128 1.397.988 3.647 2.212 4.278 2.571 1.326 5.564 1.834 8.593 2.952 0 0 .311.15.19.37 0 0 .285-.09 1.002.284.527.096 1.054.193 1.973.851.865.198 1.73.395 2.986.753M607.17 422.921c-.706-.979-1.413-1.958-2.159-3.67-8.835-18.124-23.599-31.535-36.733-46.244-7.767-8.7-18.623-11.226-29.14-12.484-13.323-1.595-26.92-1.112-40.4-1.117-62.139-.022-124.277.097-186.416.165-1.628.002-3.256 0-5.542 0 .558 2.855.956 5.094 1.438 7.314 1.475 6.803 3.29 13.549 4.414 20.408 2.727 16.65 8.237 32.477 17.763 46.152 11.372 16.324 26.391 28.898 46.208 34.409 3.774 1.049 7.639 1.767 12.247 2.888 1.37-.036 2.74-.071 4.581.218.546-.09 1.092-.18 2.468-.124 1.682-.045 3.364-.09 5.811.16 26.637.373 53.273.792 79.91 1.1 12.137.14 24.275.059 37.32.323 8.673-.025 17.344-.05 26.57.298.861-.111 1.722-.222 3.464-.106 3.374.02 6.747.04 10.82.418 4.735-.033 9.471-.066 15.022.061 1.375-.08 2.749-.161 4.808-.006.47-.079.94-.157 2.126-.015.738-.074 1.475-.148 2.729-.015.177-.052.355-.103 1.442.085 9.46.049 18.92.19 28.377.052 1.478-.022 4.177-1.268 4.2-2.014.128-4.053-.407-8.127-.459-12.85-.473-2.058-.947-4.116-1.275-6.944-.528-1.458-1.055-2.915-1.214-4.97-.476-1.224-.95-2.448-1.404-4.473-.37-.975-.742-1.95-.841-3.54-.659-1.699-1.317-3.397-1.801-5.797-.684-1.518-1.368-3.037-1.989-5.202-.776-1.285-1.553-2.57-2.345-4.48m-21.447 128.152c.092-.358.184-.716.546-1.24 0 0 0-.319.59-.605.929-1.432 1.858-2.864 3.273-4.615.33-.47.659-.939 1.6-1.676 2.291-3.628 5.221-7.005 6.762-10.927 6.114-15.56 12.03-31.224 13.276-48.15.156-2.119.568-4.276-3.715-3.726-7.692.044-15.385.087-23.938-.09-2.36.081-4.721.161-8.01.102-5.042.061-10.083.123-15.893-.063a32 32 0 0 1-4.073.084c-2.376.07-4.753.14-8.043-.012-13.686.252-27.372.504-41.902.408-3 .042-6 .085-9.83-.267-5.8.276-11.6.773-17.4.791-30.115.095-60.242-.37-90.339.386-7.663.192-15.233 4.122-23.279 6.277 0 0-.34.273-1.099.192-1.468.64-2.936 1.279-4.853 1.923 0 0-.348.282-1.02.198-.811.628-1.623 1.255-3.168 1.853-14.741 8.55-27.03 19.61-35.241 34.758-6.74 12.435-14.035 25.074-15.338 39.18-1.5 16.237-.349 32.72-.349 50.44 2.726-5.038 4.23-9.29 6.951-12.517 4.534-5.374 9.102-11.385 15.005-14.786 9.346-5.387 19.917-8.116 31.108-7.326 2.743.194 5.59-1.112 9.04-1.586.216-.047.433-.094 1.42.132 1.32.107 2.638.307 3.957.307 51.493-.013 102.986.015 154.478-.16 5.423-.019 10.952-.776 16.238-2.019 9.733-2.289 19.204-5.421 26.699-13.722.59-.304 1.18-.609 2.414-1.053 1.835-1.507 3.671-3.013 5.965-4.67.302-.179.47-.441 1.188-.881 2.148-2.28 4.295-4.559 6.354-7.014 0 0 .056.189.626.074"/><path fill="#f6af32" d="M304.176 301.575c.28-.32.56-.64 1.362-1.277.876-1.274 1.229-2.228 1.73-3.312.047-.453-.055-.775-.192-1.425-.668-1.448-1.301-2.57-1.98-4.053-.138-1.088-.23-1.815-.225-2.887 1.432-1.138 2.767-1.931 4.424-2.721 1.088-.642 1.855-1.286 2.9-2.11.734-1.397 1.19-2.614 1.904-3.967-.195-.692-.648-1.25-1.128-2.13-.387-1.101-.746-1.88-1.099-3.003-.959-1.101-1.924-1.86-2.895-2.64-.006-.02-.047-.028-.057-.359-1.045-3.1-2.353-3.17-4.27-.772-3.754-1.427-7.15-2.807-10.624-4.494-1.816-1.717-2.665-5.547-6.397-2.53-3.055-1.04-5.753-2.043-8.554-3.343-.77-.671-1.436-1.046-2.436-1.586-2.026-.503-3.719-.841-5.546-1.49-1.13-.68-2.124-1.05-3.319-1.697-5.17-3.645-10.285-6.593-16.732-6.186-.739-.732-1.391-1.16-2.436-1.654-2.517-.32-4.644-.574-6.77-.829a5 5 0 0 1-1.414-.661c-.275-.305-.424-.538-.497-.763-.257-.494-.497-.696-.913-1.184-2.041-.77-3.961-1.187-5.97-1.958-1.747-1.058-3.403-1.763-5.425-2.503-1.093-.108-1.822-.182-2.627-.602-1.713-1.026-3.35-1.705-5.216-2.65-1.388-.455-2.545-.645-3.673-1.18.992-.808 1.954-1.27 3.336-1.703 3.815.681 7.21 1.332 10.812 2.288 3.73 1.095 7.251 1.885 11.125 2.734 2.408.09 4.465.12 6.603.458.74.69 1.398 1.072 2.487 1.494 5.813 1.354 11.197 2.669 16.768 4.28 2.04.467 3.893.64 6.12.828 1.12.024 1.869.033 2.694.393 3.707 1.422 7.336 2.493 11.216 3.57.417 0 .583-.007 1.073.146 2.439.42 4.555.681 6.99.946.745.008 1.17.012 1.683.366.826.972 1.496 2.01 2.317 2.148 5.336.894 10.697 2.107 16.065 2.189 4.168.064 6.351-5.807 3.773-9.278-.07-1.056-.12-1.76-.139-2.814.337-1.48.64-2.608 1.338-3.735 2.792-.658 5.19-1.317 7.842-2.114.455-.665.654-1.192.835-1.747-.018-.027.044-.004.356-.06.696-.717 1.08-1.377 1.487-2.402.005-1.092-.013-1.82-.022-2.911-.957-1.784-1.923-3.205-2.879-4.646.01-.02-.033-.014-.138-.285-.69-.75-1.275-1.228-2.15-1.876-5.098-4.4-9.904-8.632-14.705-13.247-.007-5.908-7.65-7.828-6.436-13.958.009-.042-.56-.2-1.557-.545v5.865c-1.039 0-2.01 0-3.277-.149-3.795-3.027-7.292-5.904-10.789-8.782 0 0 .073-.058.081-.366-.003-.765-.016-1.223-.028-2.068-.126-3.896-2.62-3.659-5.008-3.593.016-.027-.035.009-.012-.363.757-4.476 3.077-6.008 7.352-4.74.234.01.7.05.705.436 1.346 1.12 2.687 1.854 4.134 2.806.299.492.554.684.913 1.147 2.347 1.456 4.653 2.558 7.115 3.958 7.645 5.387 15.1 10.526 22.637 15.542 3.711 2.47 7.383 5.136 11.415 6.952 5.677 2.556 11.247-1.568 10.467-7.717-.563-4.436.555-4.204 4.186-3.08 2.666.827 6.85.924 8.6-.631 1.761-1.566 2.001-5.64 1.711-8.494-.289-2.837-1.81-5.664-3.237-8.25-4.936-8.942-10.157-17.727-15.096-26.667a1092 1092 0 0 1-13.966-26.138c-2.503-4.838-4.67-9.85-6.65-14.92 1.506-.413 2.674-.689 4.092-.73 6.077 8.604 11.756 17.082 17.781 25.306 4.394 5.996 9.363 11.569 13.86 17.493 5.046 6.645 9.822 13.493 14.77 20.213 2.62 3.56 6.02 4.935 10.446 3.658 4.183-1.207 4.832-4.495 5.214-8.07.023-.214.485-.382 1.123-.85.746.593 1.79 1.108 2.373 1.944 2.043 2.924 4.278 3.443 7.68 1.966 3.7-1.607 6.653-3.761 6.24-7.87-.94-9.366-2.305-18.695-3.745-28-1.437-9.286-3.28-18.508-4.75-27.79-1.438-9.083-2.68-18.2-3.91-27.314-.682-5.055-1.166-10.137-1.74-15.207l1.617-.298c.53.933 1.252 1.806 1.56 2.807 3.39 11.005 6.814 22.001 10.036 33.055 4.668 16.01 9.175 32.068 13.758 48.104.852 2.979 1.014 6.528 2.807 8.762 1.848 2.303 5.153 4.174 8.086 4.671 3.215.546 6.032-1.484 6.6-5.354.075-.513.733-.941 1.475-1.835.626 1.189 1.06 1.953 1.439 2.745 1.921 4.016 4.747 7.018 9.512 6.605 4.542-.394 6.357-4.052 7.156-7.887 2.56-12.279 4.828-24.618 7.261-36.923q5.427-27.442 10.945-54.867c.334-1.66.994-3.254 1.502-4.879l1.833.251c-.315 6.31-.638 12.62-.94 18.931-.196 4.07-.392 8.14-.524 12.212-.07 2.154.156 4.326-.025 6.467-.501 5.934-1.409 11.844-1.679 17.786-.543 11.95-.742 23.916-1.166 35.872-.044 1.264-.438 2.61-1.015 3.743-2.287 4.486.97 6.887 3.61 9.257 2.486 2.234 5.278 3.137 8.517.63 3.499-2.71 4.941-2.076 4.88 2.423-.068 4.866 4.418 4.344 6.686 6.333.534.468 3.466-.715 4.313-1.863 5.642-7.647 11.268-15.33 16.414-23.313 5.82-9.03 11.138-18.383 16.666-27.6 5.692-9.492 11.285-19.044 17.116-28.449 1.816-2.929 4.262-5.467 6.42-8.184-1.083 5.228-2.212 9.811-4.055 14.088-4.648 10.789-9.782 21.37-14.42 32.163-6.331 14.738-12.547 29.532-18.482 44.434-2.724 6.841 1.263 11.447 8.51 10.596 1.09-.128 2.22.092 3.5.16-.204 1.948-.965 3.803-.424 5.125 1.264 3.09 2.71 6.38 5.016 8.63.87.85 4.684-.399 6.52-1.636 4.998-3.371 9.636-7.277 14.458-10.915 4.868-3.672 9.988-7.039 14.636-10.967 7.227-6.11 13.211-13.89 23.11-16.227.76-.179 1.254-1.454 1.884-2.21 1.439-1.727 2.69-3.672 4.364-5.13 5.095-4.442 10.27-8.803 15.596-12.961 1.829-1.428 4.196-2.165 6.317-3.218-4.932 7.003-10.259 12.972-15.814 18.72-4.18 4.323-8.873 8.16-12.945 12.577-6.379 6.918-12.29 14.266-18.652 21.2-6.017 6.558-12.41 12.77-18.543 19.223-4.773 5.024-3.725 9.049 2.914 11.871 1.737 1.77 3.41 3.207 5.004 5.019-.407 2.113-.734 3.852-1.224 5.693-.05.39.06.678.174 1.293.024.762.047 1.197.158 1.857.275.505.528.698 1.013 1.045.71.422 1.256.602 1.871 1.116.95 1.138 1.83 1.942 3.27 3.259-2.074.604-3.433 1.251-4.836 1.367-8.91.737-17.827 1.89-26.746 1.926-47.492.193-94.985-.013-142.477.194-9.234.04-18.484 1.095-27.686 2.064-6.837.72-12.44 4.521-17.87 8.447-6.187 4.472-12.755 8.53-18.39 13.618-4.955 4.472-9.352 9.791-12.982 15.393-1.573 2.428-2.006 3.743-3.696 2.479-1.231 2.742-2.555 5.27-3.517 7.928-1.727 4.769-3.03 9.698-4.894 14.408-2.02 5.107-4.86 8.683-11.618 7.746-6.43-.892-13.068-.272-20.026-.353-2.529-.306-4.645-.798-6.764-.81-11.929-.07-23.858-.024-36.191-.081-3.805-.046-7.206-.029-11.073-.008-5.493.247-10.52.49-15.547.734-1.023.013-2.045.025-3.456-.32-.432-.69-.477-1.024-.527-1.736-.027-1.136-.049-1.894.225-2.922 4.454-.734 8.614-1.196 13.038-1.392 3.75.036 7.236-.196 11.12-.397 1.466.008 2.532-.014 4.012-.052 3.182-.309 5.981-.444 8.707-.962 1.379-.262 2.626-1.216 4.296-1.822 1.765.112 3.218.465 4.556.21 3.088-.588 6.083-1.787 9.185-2.15 3.575-.418 7.225-.204 11.254-.22 5.118 1.399 9.7 1.968 13.993-1.995 3.536-.599 6.897-2.273 9.705-1.61 4.645 1.097 7.457-.523 10.083-3.74"/><path fill="#0a6d23" d="M529.054 352.17c-19.444.18-38.888.44-58.332.516-20.95.082-41.9-.01-63.444-.5-4.308-1.042-8.003-1.915-11.735-2.124-9.27-.519-18.558-.68-27.834-1.1-3.627-.164-7.246-.59-10.856-1.003-.917-.105-2.518-.532-2.57-.96-.63-5.273-4.9-6.344-8.717-8.158-.87-.413-1.26-2.198-1.538-3.427-1.392-6.144-3.909-11.415-9.248-15.322-6.274-4.589-7.863-12.728-4.61-19.9.495-1.094.408-2.452.59-3.687l-1.072-.358-8.279 7.5c-.281-3.67-.478-6.24-.645-8.817.03-.007.09-.003.444.024 2.104-.802 4.685-1.21 2.525-4.404 5.166-7.64 9.908-15.26 18.525-19.35 1.109.396 1.923.654 2.586 1.259-.332 2.726.174 5.461-.836 7.412-2.02 3.897.028 6.45 1.664 9.505 1.427 2.665 2.208 5.672 3.338 8.502.875 2.19 1.34 4.822 2.862 6.429 8.103 8.554 14.49 18.6 24.198 25.853 3.919 2.93 7.266 6.398 12.003 8.23 1.57.606 3.857 2.85 3.655 3.946-.946 5.124 2.343 5.607 5.704 5.712 14.52.45 29.045.715 43.943 1.05 1.125.001 1.875 0 2.923-.02.769-.335 1.24-.652 2.083-.974 1.122 0 1.87.003 2.894.293 4.838.54 9.4 1.009 13.963 1.007 13.882-.006 27.765-.105 41.644-.346 6.952-.12 13.945-.257 20.828-1.117 3.471-.434 6.897-2.222 9.999-3.998.885-.507.03-3.516.901-4.688 2.174-2.923 4.654-5.721 7.446-8.046 2.177-1.814 5.74-2.254 7.407-4.331 4.216-5.253 7.702-11.09 11.497-16.682 3.245-4.783 6.735-9.419 9.689-14.375 1.859-3.119 3.212-6.622 4.27-10.111 1.044-3.44.411-7.803 2.312-10.486 4.292-6.057 2.618-12.997 4.97-19.37-3.823-.66-7.026-1.214-10.158-2.124 6.169-2.885 12.363-5.212 18.307-8.062 1.832-.878 2.982-3.18 4.474-4.945.03-.115-.008-.35.088-.454s.291-.307.615-.366c4.54-3.977 8.759-7.897 13.753-12.538-.38 6.98-.734 13.697-1.12 20.412a162 162 0 0 1-.52 6.7c-.844 8.497-.858 17.199-2.84 25.424-1.726 7.166-5.903 13.709-8.605 20.679-3.6 9.285-9.422 16.896-16.808 23.355-4.24 3.707-8.924 6.902-13.211 10.558-8.665 7.388-19.06 10.81-29.788 13.702-3.242.874-6.23 2.69-9.334 4.075"/><path fill="#eec170" d="M323.91 117.013c2.318 4.933 4.485 9.945 6.988 14.783 4.541 8.772 9.189 17.492 13.966 26.138 4.94 8.94 10.16 17.725 15.096 26.668 1.427 2.585 2.948 5.412 3.237 8.25.29 2.853.05 6.927-1.711 8.493-1.75 1.555-5.934 1.458-8.6.632-3.63-1.125-4.75-1.357-4.186 3.079.78 6.15-4.79 10.273-10.467 7.717-4.032-1.816-7.704-4.482-11.415-6.952-7.537-5.016-14.992-10.155-22.695-15.888-2.509-1.751-4.804-2.858-7.1-3.966-.316-.11-.571-.3-.929-1.125-1.47-1.32-2.775-2.09-4.08-2.86 0 0-.466-.04-.777-.382-2.268-1.448-4.226-2.555-6.504-3.793-4.134-3.014-7.947-5.896-11.905-9.086-5.335-3.76-10.48-7.286-15.765-10.588-.839-.523-2.31-.033-3.49-.012.201 1.177-.025 2.86.673 3.451 5.437 4.611 11.052 9.012 16.772 13.748 1.097 1.076 2.035 1.882 3.118 2.988 3.364 3.111 6.583 5.924 9.803 8.736 0 0 .05-.036.09.32 1.678 1.455 3.316 2.553 4.953 3.651.012.458.025.916-.004 1.715-1.936-.599-4.14-1.187-5.676-2.536-10.474-9.206-20.897-18.476-31.085-27.995-1.428-1.335-2.643-4.71-1.936-6.141 1.464-2.962 4.343-2.075 6.828-.385 10.156 6.911 20.266 13.894 30.548 20.613 13.743 8.98 27.627 17.746 41.46 26.588 3.33 2.129 6.49 4.726 10.103 6.163 4.94 1.964 7.28-.624 6.604-6.054-.238-1.91.066-5.188 1.108-5.658 1.642-.741 4.107.459 6.24.66 2.128.201 5 1.041 6.208.02 1.171-.992 1.525-4.438.718-6.04-5.816-11.547-12.005-22.906-18.101-34.312-7.039-13.168-14.07-26.34-21.177-39.472-2.282-4.217-5.194-8.141-7.029-12.53-.903-2.16-.006-5.072.076-7.643 2.382.973 5.643 1.268 7.005 3.03 8.833 11.426 17.198 23.21 25.821 34.8 8.612 11.576 17.324 23.076 26.043 34.571 1.991 2.626 3.946 5.36 6.354 7.57 3.663 3.362 6.938 1.95 8.155-2.957.477-1.922 1.647-3.672 2.5-5.5 1.954.958 3.885 1.964 5.865 2.863 1.956.89 4.903 2.89 5.743 2.241 1.614-1.249 3.053-4.15 2.804-6.147-1.541-12.315-3.656-24.557-5.41-36.848-.982-6.888-1.479-13.847-2.475-20.733-1.9-13.13-4.152-26.212-5.849-39.368-.246-1.906 1.235-5.036 2.854-5.963 2.947-1.688 4.303.965 5.095 3.575 4.046 13.334 8.146 26.65 12.167 39.99 4.123 13.674 8.142 27.378 12.281 41.046 1.238 4.089 2.233 8.365 4.224 12.082 2.422 4.519 5.877 4.104 8.8-.063 1.175-1.677 3.348-2.654 5.067-3.95 1.077 1.432 2.065 2.942 3.254 4.274 1.459 1.634 3.533 4.648 4.546 4.35 2.136-.626 4.789-2.711 5.393-4.744 1.835-6.173 2.797-12.605 4.095-18.937 1.866-9.1 3.727-18.202 5.592-27.303 2.161-10.547 4.307-21.098 6.493-31.64 1.307-6.3 2.422-12.66 4.188-18.83.485-1.695 3.002-2.807 4.586-4.187.95 1.662 2.784 3.363 2.712 4.978-.765 17.096-1.834 34.177-2.82 51.263-.01.166-.05.33-.058.496-.665 15.075-1.439 30.147-1.853 45.23-.053 1.908 1.355 4.915 2.85 5.516 1.535.617 4.019-1.054 6.064-1.79 1.913-.69 3.795-1.466 5.69-2.205.729 1.88 1.424 3.773 2.194 5.636.806 1.95 1.772 5.531 2.514 5.492 2.293-.121 5.425-.998 6.605-2.705 5.818-8.415 11.2-17.138 16.57-25.855 8.89-14.429 17.645-28.94 26.475-43.406 2.683-4.396 5.12-8.996 8.288-13.017 1.327-1.684 4.666-3.377 6.374-2.83 3.333 1.068 1.51 4.066.551 6.316-4.82 11.319-9.68 22.62-14.5 33.94-7.553 17.737-15.19 35.44-22.568 53.25-2.47 5.96.15 8.67 6.688 7.518 7.05-1.241 6.881-1.26 6.093 6.028-.227 2.105.177 5.593 1.422 6.227 1.734.883 5.08.447 6.777-.767 6.597-4.719 12.8-9.985 19.176-15.016 13.926-10.988 27.85-21.978 41.81-32.923 5.574-4.37 11.108-8.815 16.955-12.793 1.465-.997 4.067-.323 6.147-.417-.536 2.253-.362 5.146-1.723 6.656-8.457 9.39-17.294 18.435-25.937 27.66-12.145 12.963-24.23 25.983-36.343 38.977-1.448 1.553-3.353 2.864-4.284 4.679-2.149 4.189-.11 6.927 4.61 7.264 1.963.14 5.084.8 5.494 1.981.58 1.671-.493 4.256-1.526 6.071-1.755 3.085-2.908 5.754.97 8.528-.48.6-.998.714-1.516.827-.546-.18-1.092-.36-1.897-1.004-.444-.742-.692-.937-1.006-1.048-.023-.435-.046-.87-.065-1.899-.003-.772-.01-.95-.016-1.128.327-1.739.654-3.478 1.412-5.634 1.09-1.374 1.749-2.33 2.408-3.287-.988-.666-1.9-1.681-2.982-1.914-1.55-.335-3.224-.099-4.846-.107-6.574-2.49-7.622-6.515-2.849-11.539 6.133-6.454 12.526-12.665 18.543-19.222 6.362-6.935 12.273-14.283 18.652-21.201 4.072-4.416 8.765-8.254 12.945-12.578 5.555-5.747 10.882-11.716 15.814-18.72-2.121 1.054-4.488 1.791-6.317 3.219-5.326 4.158-10.5 8.52-15.596 12.96-1.674 1.46-2.925 3.404-4.364 5.131-.63.756-1.124 2.031-1.883 2.21-9.9 2.338-15.884 10.117-23.111 16.227-4.648 3.928-9.768 7.295-14.636 10.967-4.822 3.638-9.46 7.544-14.459 10.915-1.835 1.237-5.65 2.485-6.519 1.637-2.306-2.252-3.752-5.54-5.016-8.63-.54-1.323.22-3.178.424-5.126-1.28-.068-2.41-.288-3.5-.16-7.247.851-11.234-3.755-8.51-10.596 5.935-14.902 12.15-29.696 18.483-44.434 4.637-10.794 9.77-21.374 14.42-32.163 1.842-4.277 2.971-8.86 4.054-14.088-2.158 2.717-4.604 5.255-6.42 8.184-5.83 9.405-11.424 18.957-17.116 28.448-5.528 9.218-10.845 18.572-16.666 27.601-5.146 7.984-10.772 15.666-16.414 23.313-.847 1.148-3.779 2.33-4.313 1.863-2.268-1.99-6.754-1.467-6.687-6.333.062-4.5-1.38-5.133-4.879-2.424-3.239 2.508-6.031 1.605-8.518-.629-2.639-2.37-5.896-4.77-3.609-9.257.577-1.132.97-2.48 1.015-3.743.424-11.956.623-23.922 1.166-35.872.27-5.942 1.178-11.852 1.679-17.786.18-2.14-.045-4.313.025-6.467.132-4.072.328-8.142.523-12.212.303-6.31.626-12.62.94-18.931l-1.832-.25c-.508 1.624-1.168 3.218-1.502 4.878q-5.519 27.425-10.945 54.867c-2.433 12.305-4.701 24.644-7.26 36.923-.8 3.835-2.615 7.493-7.157 7.887-4.765.413-7.591-2.589-9.512-6.605-.379-.792-.813-1.556-1.439-2.745-.742.894-1.4 1.322-1.475 1.835-.568 3.87-3.385 5.9-6.6 5.354-2.933-.497-6.238-2.368-8.086-4.671-1.793-2.234-1.955-5.783-2.807-8.762-4.583-16.036-9.09-32.093-13.758-48.104-3.222-11.054-6.645-22.05-10.036-33.055-.308-1-1.03-1.874-1.56-2.807l-1.616.298c.573 5.07 1.057 10.152 1.74 15.207 1.23 9.115 2.47 18.231 3.909 27.315 1.47 9.28 3.313 18.503 4.75 27.788 1.44 9.306 2.805 18.635 3.745 28 .413 4.11-2.54 6.264-6.24 7.87-3.402 1.478-5.637.959-7.68-1.965-.584-.836-1.627-1.351-2.373-1.945-.638.469-1.1.637-1.123.851-.382 3.575-1.031 6.863-5.214 8.07-4.425 1.277-7.826-.097-10.447-3.658-4.947-6.72-9.723-13.568-14.768-20.213-4.498-5.924-9.467-11.497-13.86-17.493-6.026-8.224-11.705-16.702-17.839-25.648-2.086-2.805-3.866-5.034-5.646-7.263l-1.988 1.234z"/><path fill="#039505" d="M400.943 470.7c-1.681.045-3.363.09-5.542-.29-1.124-.724-1.751-1.02-2.594-1.607-6.155-2.683-12.289-4.673-15.829-10.792-1.017-1.758-2.925-3.1-4.64-4.33-2.904-2.086-4.588-4.602-5.504-8.536-.295-1.266-1.069-2.416-1.59-3.634-3.424-8.012-7.548-15.814-10.048-24.105a96.9 96.9 0 0 1-4-23.772c-.442-10.81.502-21.677 1.312-32.562 6.532.063 12.602.168 18.975.488 3.311.075 6.319-.064 9.802-.278 8.22-.109 15.964-.143 23.707.224.153 3.002-.835 4.406-3.672 4.526-4.112.175-8.213.632-12.742.969h-6.481c1.624 2.854 3.75 4.867 3.72 6.849-.105 7.203-.953 14.394-1.463 21.594-.066.94-.153 2.26.38 2.798 3.994 4.032 3.246 9.063 3.335 13.983.022 1.208.512 2.723 1.335 3.551 5.668 5.702 4.407 11.722 1.454 18.143-.69 1.498-.191 5.219.185 5.28 6.494 1.045 10.308 6.064 15.052 9.666.115.087.325.042.488.073 8.77 1.67 9.947 2.707 10.317 11.275.162 3.742 1.518 5.01 5.092 4.843 2.6-.121 5.13.368 4.539 3.967-7.27.027-14.075-.066-20.872.115-1.585.043-3.144 1.016-4.716 1.562"/><path fill="#1d6b23" d="M586.268 549.514s0 .318-.38.512c-.5.517-.618.84-.736 1.162 0 0-.056-.19-.37-.166-2.449 2.377-4.585 4.73-6.721 7.083-.037.348-.205.61-1.11.862-2.053.384-3.502.696-4.98.679-.677-3.931-1.16-7.572-2.018-11.123-.835-3.453-1.79-6.927-3.187-10.18-1.218-2.839-3.187-5.348-4.713-8.065-1.894-3.376-3.196-7.212-5.616-10.136-3.56-4.3-8.227-7.68-11.807-11.967-7.74-9.265-17.092-16.255-27.978-21.285-.976-.451-2.23-.627-3.3-.492-5.711.722-6.01.507-6.313-5.487 13.686-.252 27.372-.504 41.526-.298.759 1.213.848 2.168 1.37 2.693 7.062 7.105 14.799 13.645 21.136 21.34 7.826 9.503 19.061 17.557 17.235 32.338-.016.124.17.273.333.516 1.395-.16 2.85-.329 4.184-.201a365 365 0 0 0-1.704 5.906c-.33.47-.659.938-1.573 1.56-1.968.602-3.35 1.052-4.723 1.5z"/><path fill="#f1b549" d="M606.784 289.3c9.312.275 18.625.507 27.933.86 1.787.068 3.79.216 5.25 1.078.967.571 1.725 2.59 1.504 3.757-.194 1.03-1.791 2.4-2.913 2.551-6.745.91-13.524 1.59-20.307 2.181-3.263.284-6.178.979-6.362 4.851-.185 3.896 2.296 5.486 5.922 5.998a4117 4117 0 0 1 39.278 5.752c8.522 1.289 17.026 2.703 25.533 4.094 5.386.881 10.794 1.675 16.122 2.835 1.443.314 2.626 1.82 3.928 2.778-1.397 1.186-2.726 3.281-4.205 3.393-5.125.388-10.302.137-15.458.035-7.119-.14-14.235-.411-21.354-.547-23.957-.459-47.916-.869-71.873-1.345-1.792-.036-3.576-.447-5.54-1.34 10.567-10.762 16.409-23.937 22.542-36.93"/><path fill="#297d1a" d="M367.032 579.938c-.216.047-.433.094-1.353.011-3.698-.398-6.692-.666-9.631-1.284 1.582-2.964 3.654-5.41 4.524-8.228 1.774-5.75 2.854-11.71 4.33-17.556.35-1.388 1.036-2.721 1.738-3.984 4.333-7.8 13.161-12.625 14.758-22.28.105-.634 1.12-1.13 1.733-1.664 3.624-3.16 7.215-6.357 10.892-9.453 4.175-3.515 8.197-6.883 14.405-6.768 2.597.048 5.241-2.77 7.874-4.268 4.958-2.821 9.716-7.52 14.924-8.089 15.295-1.672 30.766-1.828 46.178-2.25 2.543-.07 5.115 1.565 7.7 2.321 6.024 1.762 10.017 6.232 14.39 10.318 1.424 1.33 3.993 2.269 5.914 2.085 6.653-.636 11.649 3.422 15.203 7.273 10.135 10.983 20.617 21.94 26.203 36.336 1.345 3.466 3.43 6.645 5.15 9.909l-4.257 3.273 5.13 3.565c-.724 1.491-1.28 2.636-2.183 3.942-2.11.408-3.874.655-5.586.54.57-1.825 1.59-3.323 1.495-4.746-.168-2.522-.874-5.04-1.616-7.482-.81-2.667-1.425-5.59-2.982-7.797-5.613-7.955-11.288-15.906-17.536-23.36-3.761-4.487-8.207-8.691-13.09-11.883-7.403-4.837-15.809-8.158-23.119-13.11-6.026-4.084-12.249-4.562-18.945-4.188-11.066.617-22.17 2.083-33.182 1.572-6.86-.318-11.044 2.802-15.734 6.368-2.29 1.74-4.802 3.377-7.467 4.4-6.467 2.48-13.106 4.026-17.578 10.4-6.64 9.46-14.258 18.229-21.116 27.545-2.266 3.077-4.111 6.782-5.005 10.476-1.274 5.262-1.494 10.78-2.16 16.5.002.726 0 1.14 0 1.556"/><path fill="#0d5e2c" d="m320.734 294.837.675 8.81 8.279-7.5 1.073.358c-.183 1.235-.096 2.593-.592 3.686-3.252 7.173-1.663 15.312 4.61 19.901 5.34 3.907 7.857 9.178 9.25 15.322.278 1.229.668 3.014 1.537 3.427 3.817 1.814 8.087 2.885 8.718 8.158.05.428 1.652.855 2.57.96 3.61.413 7.228.839 10.855 1.003 9.276.42 18.564.581 27.834 1.1 3.732.21 7.427 1.082 11.289 1.973-1.996.44-4.142.667-6.287.665-31.145-.025-62.29-.08-93.933-.611.941-8.547 2.427-16.604 3.743-24.689.119-.734-.86-1.647-1.346-2.857 2.86-8.928 5.663-17.503 8.692-25.997.505-1.417 1.997-2.481 3.033-3.709M592.944 537.003l-4.305.497c-.163-.243-.349-.392-.333-.516 1.826-14.781-9.41-22.835-17.235-32.338-6.337-7.695-14.074-14.235-21.136-21.34-.522-.525-.611-1.48-.913-2.582 2.365-.416 4.742-.487 7.78-.258 1.834.155 3.007.01 4.18-.135 5.04-.062 10.082-.124 15.878.124 3.208.143 5.662-.024 8.116-.19 7.693-.044 15.386-.087 23.547.367.147 3.598-.048 6.719-.526 9.795-.777 4.996-1.247 10.116-2.745 14.903-1.967 6.288-4.808 12.302-7.26 18.44-.307.764-.91 1.653-.742 2.325 1.181 4.716-1.73 7.73-4.306 10.908"/><path fill="#117817" d="M583.962 472.846c-.738.075-1.475.149-2.631-.2-1.34-.898-2.263-1.373-3.185-1.848l-.36.668 1.152 1.382c-1.374.08-2.748.161-4.827-.128-5.476-.263-10.246-.156-15.017-.048-3.374-.02-6.747-.04-10.56-.393-.532-.612-.586-.898-.35-1.492 4.047-.995 7.845-1.69 11.445-2.348l-2.733-2.401c8.173-6.991 13.819-15.188 16.168-25.485.464-2.035 1.826-3.863 2.755-5.795 2.413-5.021 5.525-9.842 7.049-15.121 2.03-7.032 2.824-14.42 4.454-21.514 1.768 1.7 3.444 3.107 4.656 4.84 3.72 5.32 7.262 10.766 10.908 16.54.41 2.077.784 3.776.838 5.63-5.114 2.059-7.803 5.18-6.822 10.724.177 1.002-.494 2.243-.999 3.263-5.33 10.767-13.158 20.641-11.94 33.726"/><path fill="#0b850d" d="M352.046 361.115c-.348 10.842-1.292 21.71-.85 32.52a96.9 96.9 0 0 0 4 23.771c2.5 8.291 6.624 16.093 10.049 24.105.52 1.218 1.294 2.368 1.589 3.634.916 3.934 2.6 6.45 5.504 8.535 1.715 1.232 3.623 2.573 4.64 4.33 3.54 6.12 9.674 8.11 15.807 11.05.187.89.18 1.232.174 1.575-1.37.036-2.74.071-4.6-.333-2.712-1.417-4.85-2.765-7.174-3.308-10.512-2.455-19.796-7.292-28.2-14.332 1.695-7.5 1.241-8.216-5.289-10.886-.76-.311-1.367-2.41-1.107-3.445.33-1.311 1.619-2.382 2.427-3.465-1.107-1.743-2.598-3.115-2.897-4.711-3.19-17.031-9.132-33.71-7.074-51.44.44-3.8 1.45-7.532 2.219-11.402l-4.659-2.04c2.306-1.799 3.862-3.013 5.872-4.243 3.491.017 6.53.051 9.57.085"/><path fill="#247321" d="M506.617 480.737c.725 6.168 1.024 6.383 6.735 5.661 1.07-.135 2.324.04 3.3.492 10.886 5.03 20.238 12.02 27.978 21.285 3.58 4.286 8.247 7.667 11.807 11.967 2.42 2.924 3.722 6.76 5.616 10.136 1.526 2.717 3.495 5.226 4.713 8.065 1.397 3.253 2.352 6.727 3.187 10.18.859 3.55 1.34 7.192 1.879 11.36a231 231 0 0 1-.887 3.821c-.59.304-1.18.609-2.446 1.044-2.945.849-5.215 1.568-7.489 1.878 1.54-1.968 3.083-3.527 4.418-4.876-2.416-3.678-5.314-8.063-8.164-12.48-.245-.38-.368-1.046-.21-1.446 2.1-5.298-2.046-8.214-4.51-11.704-1.328-1.881-3.048-3.485-4.591-5.215-10.318-11.566-19.59-24.256-33.559-31.959-9.377-5.17-17.63-13.287-29.897-11.195-1.206.205-2.982-2.933-4.034-4.586l16.731-2.475c3-.042 6-.085 9.423.047"/><path fill="#3b7d40" d="M352.965 453.07c8.424 6.632 17.708 11.469 28.22 13.924 2.325.543 4.462 1.89 6.782 3.183-3.726-.556-7.591-1.274-11.365-2.323-19.817-5.51-34.836-18.085-46.208-34.409-9.526-13.675-15.036-29.502-17.763-46.152-1.123-6.86-2.94-13.605-4.414-20.408-.482-2.22-.88-4.46-1.438-7.313h5.542c62.139-.069 124.277-.188 186.416-.166 13.48.005 27.077-.478 40.4 1.117 10.517 1.258 21.373 3.785 29.14 12.484 13.134 14.71 27.898 28.12 36.47 46.524-.808.052-1.352-.176-1.896-.405-3.611-5.397-7.153-10.843-10.873-16.164-1.212-1.732-2.888-3.14-4.866-4.952-.774-.456-.96-.71-1.177-1.25-.38-.422-.656-.61-1.224-.951-1.719-1.436-3.147-2.719-4.582-4.208-.007-.206-.051-.616-.09-.977-1.38-4.862-4.5-7.517-8.881-9.239-.568-1.69-.854-3.24-1.73-4.303-7.87-9.55-19.222-11.694-30.722-14.386-3.784-.358-7.282-.425-11.096-.52-.733.017-1.15.06-2.03.033-4.818-.029-9.174.01-13.913-.026-1.16-.038-1.937 0-3.144-.017-2.457-.106-4.484-.156-6.81-.498-1.277-.425-2.256-.675-3.234-.675-21.823-.002-43.646.024-65.92.024-3.152 0-5.854.02-8.993.014-2.486-.014-4.533-.001-7.029-.014-3.14-.003-5.833.019-8.903.02-1.132.008-1.887.038-2.641.068-7.744.034-15.488.068-24.135.11-3.828.05-6.753.09-9.678.13-6.07-.105-12.14-.21-18.671-.273-3.502.01-6.54-.025-10.41-.064-4.577 0-8.322.005-12.495-.004-6.423.676-12.417 1.368-18.411 2.059l-.214 1.982 6.174 2.481c-.78 3.893-2.479 7.59-2.021 11 1.27 9.477 2.76 19.035 5.467 28.175 2.096 7.076 6.156 13.57 9.361 20.694.902 2.071 1.448 4.1 2.726 5.415 6.657 6.853 13.5 13.525 20.279 20.26"/><path fill="#2c6d39" d="M355.993 579.015c2.994.268 5.988.536 9.36.863-2.42.675-5.267 1.98-8.01 1.787-11.19-.79-21.762 1.94-31.108 7.326-5.903 3.401-10.47 9.412-15.005 14.786-2.721 3.226-4.225 7.48-6.95 12.517 0-17.72-1.152-34.203.348-50.44 1.303-14.106 8.597-26.745 15.338-39.18 8.211-15.147 20.5-26.207 35.955-34.67 1.518-.56 2.322-1.208 3.126-1.857 0 0 .348-.282.941-.16 2.068-.573 3.543-1.268 5.018-1.964 0 0 .341-.273.945-.077 1.441.24 2.28.285 3.037.665-4.522 2.705-8.99 5.027-13.393 7.465-1.852 1.026-3.665 2.175-5.32 3.488-1.918 1.52-3.425 3.656-5.494 4.874-6.893 4.059-13.016 8.559-14.014 17.368-.085.753-1.337 1.314-1.866 2.088-1.038 1.519-2.143 3.04-2.87 4.712a121 121 0 0 0-3.636 9.506c-2.74 8.122-8.59 15.246-6.808 24.834.807 4.341-.218 9.04-.54 13.568-.384 5.374-.907 10.738-1.369 16.107l1.727.613c1.114-.83 2.56-1.44 3.287-2.529 3.92-5.87 10.179-6.616 16.624-7.908a329 329 0 0 1 13.087-2.858c2.805-.296 5.197-.61 7.59-.924"/><path fill="#e3be5e" d="M320.764 294.83c-1.066 1.235-2.558 2.3-3.063 3.716-3.03 8.494-5.831 17.069-8.81 26.003-.102.387-.339.409-.339.409-2.533-.426-5.052-1.07-7.601-1.236-7.353-.477-14.718-.761-22.496-1.528-.441-.708-.463-1.008-.483-1.308 6.546.044 13.185-.576 19.614.316 6.757.937 9.597-2.64 11.618-7.746 1.864-4.71 3.167-9.64 4.894-14.408.962-2.658 2.286-5.186 3.517-7.928 1.69 1.264 2.123-.051 3.696-2.479 3.63-5.602 8.027-10.921 12.981-15.393 5.636-5.088 12.204-9.146 18.39-13.618 5.431-3.926 11.034-7.727 17.87-8.447 9.203-.969 18.453-2.023 27.687-2.064 47.492-.207 94.985-.001 142.477-.194 8.92-.036 17.836-1.189 26.746-1.926 1.403-.116 2.762-.763 4.837-1.367-1.441-1.317-2.321-2.12-3.27-3.259.448-.447.967-.56 1.66-.872.67-.194 1.168-.19 2.11.25 7.335-.115 14.249-.437 20.292-4.57.924-.631 2.666-.067 4.009.194-.034.417-.048.584-.398.818-1.453 1.385-2.57 2.704-3.957 4.118-.922.482-1.572.868-2.6 1.294-3.044.921-5.69 1.875-8.383 2.672-5.001 1.481-9.951 3.483-15.068 4.144-6.472.836-13.09.55-20.114.68-9.578-.031-18.688-.045-27.797.058-8.256.093-16.511.315-25.212.332-30.236-.188-60.027-.234-89.817-.247-.968 0-1.937.34-3.28.344-4.32.009-8.266.397-12.208.352-18.148-.208-33.305 6.753-46.303 19.023-8.322 4.228-13.064 11.846-18.513 19.635-1.117 1.732-1.856 2.98-2.596 4.229 0 0-.06-.004-.09.003"/><path fill="#f1b549" d="M613.072 227.409c10.966-3.202 21.948-6.349 32.89-9.625 7.754-2.322 15.412-4.972 23.213-7.11 1.53-.419 3.518.836 5.295 1.319-1.017 1.681-1.626 4.164-3.113 4.922-15.997 8.148-32.124 16.04-48.235 23.963-2.959 1.455-6 2.743-9.478 3.667-.507-6.006-.54-11.571-.572-17.136"/><path fill="#2c6d39" d="M615.18 447.01c.528 1.458 1.055 2.915 1.3 5.014.246 2.747.775 4.853 1.304 6.96.306 4.066.84 8.14.713 12.193-.023.746-2.722 1.992-4.2 2.014a461 461 0 0 1-28.583-.46c4.917-1.131 10.04-1.854 15.161-2.577l.027-1.487c-2.206-.42-4.412-.838-7.182-1.363 8.168-12.226 12.147-25.343 13.66-39.342.886.04 1.478.063 2.07.086.685 1.518 1.369 3.037 1.866 5.28.448 2.38 1.082 4.034 1.716 5.688.371.975.742 1.95 1.053 3.677.325 1.94.71 3.129 1.095 4.317"/><path fill="#3b7d40" d="M612.945 226.922c.16 6.052.192 11.617.336 17.632-.359 4.989-1.43 9.563-1.17 14.06.494 8.592-1.083 16.664-4.147 24.587-.647 1.673-.881 3.507-1.243 5.683-6.07 13.41-11.912 26.585-22.682 36.973-4.357 3.331-8.894 6.13-12.983 9.476-10.993 8.996-24.26 12.642-38.1 16.501-.624.014-1.027.22-1.027.22-.726.122-1.452.243-2.526.24 2.755-1.509 5.743-3.325 8.985-4.199 10.728-2.892 21.123-6.314 29.788-13.702 4.287-3.656 8.972-6.85 13.21-10.558 7.387-6.46 13.209-14.07 16.809-23.355 2.702-6.97 6.88-13.513 8.606-20.679 1.981-8.225 1.995-16.927 2.839-25.424.221-2.229.391-4.464.52-6.7.386-6.715.74-13.432 1.12-20.412-4.994 4.641-9.212 8.56-13.809 12.253-.397-.615-.415-1.003-.434-1.392.015-.167.029-.334.331-.875 1.091-1.175 1.894-1.976 2.696-2.777 2.543-2.949 5.372-5.704 7.546-8.904 2.072-3.05 3.462-6.565 4.737-9.061.129 2.716.3 6.321.598 10.413M561.013 567.035c2.27-.72 4.54-1.438 7.179-2.131-6.512 8.014-15.983 11.146-25.716 13.435-5.286 1.243-10.815 2-16.238 2.018-51.492.176-102.985.148-154.478.161-1.319 0-2.638-.2-4.342-.444-.384-.551-.383-.966.076-1.709 4.804-.346 9.15-.365 13.948-.372 3.149.007 5.847.001 9.01.007 4.818.009 9.17.006 13.784.277 4.412.359 8.565.445 13.187.598 24.858.026 49.247-.016 74.098-.007 7.474-.256 14.485-.562 21.949-.862 3.482 0 6.511-.007 9.976-.003 3.476-.32 6.518-.65 9.988-.976 4.147-.991 7.865-1.984 11.583-2.978 1.763-.247 3.527-.494 6-.935 3.805-2.156 6.9-4.117 9.996-6.08"/><path fill="#1d6b23" d="M607.085 427.945c-1.218 14.016-5.197 27.133-13.365 39.359l7.182 1.363-.027 1.487c-5.122.723-10.244 1.446-15.615 2.457-.427.34-.605.391-1.04.34-1.475-13.19 6.353-23.064 11.683-33.831.505-1.02 1.176-2.261.999-3.263-.981-5.544 1.708-8.665 7.174-10.72 1.378-.118 2.083-.085 2.826.304.087 1.072.135 1.788.183 2.504"/><path fill="#eec170" d="M247.897 239.079c-2.058-.03-4.115-.06-6.604-.498-4.038-1.169-7.644-1.931-11.25-2.693-3.396-.65-6.791-1.301-10.694-2.34-2.335-.46-4.162-.534-5.99-.608l2.713 3.014c1.157.19 2.314.38 3.862 1.068.96 1.18 1.531 1.86 2.102 2.541-2.82-.844-5.812-1.352-8.383-2.678-1.224-.63-2.34-2.88-2.212-4.279.103-1.126 2.004-2.569 3.371-2.968 1.45-.424 3.249.055 4.83.42 11.782 2.712 23.562 5.428 35.312 8.272 15.267 3.695 30.49 7.574 45.767 11.226 3.69.882 7.503 1.413 11.29 1.69 4.75.349 6.6-2.612 4.695-7.047-3.042-7.087-2.341-8.029 5.326-7.501 1.448.1 2.93-.316 4.814-.497.416-.003.461.028.493.255.225.646.417 1.066.61 1.486-2.398.66-4.795 1.319-7.802 1.735-5.988.66-1.758 2.71-1.156 4.328.051.703.102 1.407.117 2.868-.857 5.509-3.66 7.65-7.624 6.833-4.831-.994-9.706-1.774-14.563-2.647-.425-.004-.85-.008-1.805-.308-2.721-.468-4.913-.64-7.104-.812-.167.005-.333.011-.83-.352-3.958-1.43-7.586-2.493-11.213-3.556-.748-.01-1.496-.02-2.83-.306-2.42-.471-4.257-.666-6.093-.861-5.385-1.315-10.769-2.63-16.644-4.291-1.162-.729-1.834-1.111-2.505-1.494M303.764 301.435c-2.214 3.358-5.026 4.978-9.67 3.882-2.81-.664-6.17 1.01-9.94 1.355-4.847.022-9.038.285-13.215.688-.364.035-.64.99-.956 1.517-3.617.06-7.267-.154-10.842.264-3.102.363-6.097 1.562-9.185 2.15-1.338.255-2.791-.098-5.013-.227-4.957.52-9.757-1.71-12.96 2.816-1.066.023-2.132.045-3.79-.28-4.324-2.737-7.801-1.708-11.193.448-4.16.462-8.319.924-13.096 1.67-1.225.638-1.83.993-2.437 1.35l2.54 1.939c.045.333.09.666.153 1.249-1.511-.818-3.04-1.886-4.57-2.954 1.087-1.302 1.977-3.452 3.296-3.759 5.465-1.272 11.039-2.155 16.613-2.866 7.385-.942 14.811-1.563 22.214-2.37 13.807-1.507 27.612-3.027 41.413-4.584 6.747-.761 13.484-1.616 20.638-2.288"/><path fill="#63a075" d="M369.069 488.276c-.838-.045-1.677-.09-2.902-.301 7.226-2.38 14.796-6.31 22.459-6.502 30.097-.756 60.224-.29 90.34-.386 5.8-.018 11.599-.515 17.813-.594-5.009 1-10.433 1.802-16.78 2.597-21.282.027-41.64.063-62.464.033-10.155-.02-19.845.027-29.9.018-1.101-.015-1.837.027-2.953.036-3.145.936-5.91 1.906-9.006 2.894-.753.143-1.174.268-1.94.33-1.105.266-1.868.596-2.934.935-.78.32-1.257.63-1.733.94"/><path fill="#3b7d40" d="M401.326 470.848c1.189-.694 2.748-1.667 4.333-1.71 6.797-.181 13.601-.088 21.296-.094 2.592.005 4.291.01 6.097.178.42.062.732-.041 1.49-.135 4.44.323 8.432.636 12.42.958-.006.01.008.031.188.257.734.319 1.287.411 2.287.533 5.153-.25 9.859-.53 15.033-.803 11.171.273 21.874.538 32.999.838 5.449-.233 10.476-.5 15.659-.558.74.082 1.324-.048 2.266-.183 1.07.005 1.782.015 2.517.361l.12 1.684c-12.137-.02-24.275.062-36.412-.078a10321 10321 0 0 1-80.293-1.248M592.823 537.299c2.696-3.474 5.608-6.488 4.427-11.204-.169-.672.435-1.56.741-2.326 2.453-6.137 5.294-12.15 7.261-18.439 1.498-4.787 1.968-9.907 2.745-14.903.478-3.076.673-6.197.987-9.713 3.353-1.13 2.941 1.027 2.785 3.147-1.246 16.925-7.162 32.59-13.276 48.149-1.54 3.922-4.47 7.3-7.069 11.06.222-1.735.75-3.606 1.399-5.771"/><path fill="#eec170" d="M277.56 320.85c.432.336.454.636.504 1.153-4.737.365-9.503.72-14.26.616-9.387-.203-18.769-.66-28.487-1.52-.326-.696-.317-.887-.309-1.078 11.93-.006 23.86-.052 35.788.017 2.12.013 4.235.505 6.764.811M311.867 275.033c.358.78.717 1.559 1.116 2.942.313 1.064.586 1.524.858 1.983-.456 1.218-.912 2.435-1.985 3.845-1.372.826-2.127 1.46-2.883 2.094-1.335.793-2.67 1.586-4.378 2.776-.418 1.334-.464 2.272-.552 3.263l-.126.159-4.314-4.456c1.524-1.182 2.885-2.995 4.599-3.435 6.57-1.685 7.493-4.576 2.993-11.009.615-.789 1.175-.98 1.735-1.173 0 0 .041.008.087.353.981 1.117 1.915 1.887 2.85 2.658M241.957 247.43c2.005-.065 4.132.19 6.696.836a33 33 0 0 0 2.475 1.631c6.361-.71 11.475 2.237 16.657 6.179.216.97.222 1.367.228 1.763-8.645-3.362-17.29-6.725-26.056-10.408M599.644 234.365c-.382.91-1.185 1.711-2.256 2.636-1.631.113-3.373-.451-4.297.18-6.043 4.133-12.957 4.455-19.943 4.709 8.628-2.744 17.352-5.19 26.496-7.525M310.982 211.015c4.807 4.23 9.613 8.462 14.757 13.175.96.932 1.585 1.384 2.209 1.835 0 0 .043-.006.04.398a347 347 0 0 1-.065 2.728c-7-6.45-14-12.9-20.705-19.724 1.452.28 2.608.934 3.764 1.588"/><path fill="#63a075" d="M308.502 325.394c.05-.436.287-.458.406-.464.587.823 1.566 1.736 1.447 2.47-1.316 8.085-2.802 16.142-4.182 24.574-.555-.26-1.772-.978-1.693-1.503 1.225-8.228 2.618-16.431 4.022-25.077"/><path fill="#f1b549" d="M310.988 210.63c-1.162-.27-2.318-.924-3.816-1.553-.342.024-.756-.076-.983-.523-2.208-2.486-4.19-4.523-6.173-6.56h2.98v-5.866c.996.346 1.565.503 1.556.545-1.215 6.13 6.43 8.05 6.436 13.958"/><path fill="#117817" d="M518.486 472.296c-.487-.571-.519-1.02-.097-1.86 9.173-.413 17.89-.436 26.616-.176.02.471.032.66.009 1.156-.043.515-.05.722-.059.929-8.672.025-17.343.05-26.47-.049"/><path fill="#eec170" d="M279.178 260.849c2.698 1.003 5.396 2.007 8.461 3.337.375.713.383 1.098.392 1.484-6.297-2.32-12.593-4.64-18.614-7.328.787-.43 1.298-.492 1.81-.555 1.693.338 3.386.676 5.475 1.493 1.09.842 1.783 1.206 2.476 1.569M299.718 201.844c2.28 2.187 4.263 4.224 6.289 6.6a374 374 0 0 1-17.049-15.041c3.468 2.537 6.965 5.414 10.76 8.441M294.104 266.732c3.396 1.38 6.792 2.76 10.647 4.442.724.779.99 1.255 1.257 1.731-3.868-1.538-7.735-3.077-11.788-5.156-.185-.54-.116-1.017-.116-1.017M208.35 320.892c4.662-.451 9.689-.695 15.183-.683.468.43.468.602.468.775-5.096.039-10.192.077-15.652-.092"/><path fill="#3b7d40" d="M559.443 472.85a142 142 0 0 1 14.26-.21c-4.439.323-9.175.356-14.26.21"/><path fill="#eec170" d="M239.998 245.91s.149.234.177.367c-3.68-1.088-7.39-2.31-10.854-3.87 1.432-.063 2.621.213 3.81.49 1.92.418 3.84.836 5.936 1.844.343.895.595 1.088.931 1.17"/><path fill="#e3be5e" d="M224.455 321.045c-.454-.234-.454-.407-.456-.839 3.4-.277 6.801-.294 10.606-.248.395.254.386.445.362.922-3.363.267-6.71.246-10.512.165"/><path fill="#3b7d40" d="M578.402 558.059a57 57 0 0 1 6.425-6.949c-1.79 2.344-3.937 4.623-6.425 6.949"/><path fill="#2c6d39" d="M606.864 425.084c-.705-.032-1.41-.065-2.467-.101-.727-1.704-1.102-3.403-1.511-5.48.509-.148 1.053.08 1.88.395.99 1.065 1.697 2.044 2.325 3.72-.127.952-.177 1.21-.227 1.466"/><path fill="#e3be5e" d="M294.026 266.425c.078.307.009.783.02 1.022-.46.204-.93.17-1.832-.285-1.129-.617-1.825-.815-2.521-1.013a8.7 8.7 0 0 1-1.405-.337c-.266-.528-.274-.913-.292-1.59 3.365-3.344 4.214.486 6.03 2.203"/><path fill="#3b7d40" d="M571.267 563.634c-.062-1.015.197-2.1.595-3.422 1.587-.549 3.036-.86 4.86-1.17-1.462 1.51-3.298 3.015-5.455 4.592"/><path fill="#eec170" d="M307.12 297.115c-.353.955-.706 1.91-1.363 2.952-.734-2.345-1.165-4.777-1.718-7.59-.122-.382-.037-.487.268-.524.482-.052.658-.068.835-.083.633 1.121 1.266 2.243 1.913 3.999.031.838.048 1.042.065 1.246"/><path fill="#3b7d40" d="M617.911 458.656c-.656-1.779-1.185-3.885-1.503-6.248.683 1.803 1.157 3.861 1.503 6.248M586.563 549.371c-.745-.868-1.195-1.88-1.74-3.106 1.373-.448 2.755-.898 4.48-1.34-.587 1.44-1.516 2.871-2.74 4.446"/><path fill="#eec170" d="M330.851 231.047c.018.728.036 1.457-.273 2.613a52 52 0 0 0-1.495 2.394s-.062-.023-.34-.01c-.664.07-1.05.128-1.436.185a1 1 0 0 0-.069-.042c.358-1.512.74-3.014 1.537-4.867.969-.325 1.522-.299 2.076-.273"/><path fill="#e3be5e" d="M330.86 230.685c-.563.336-1.116.31-1.94.276-.482-.392-.694-.775-.952-1.484-.024-1.1-.003-1.875.01-3.034.959 1.037 1.925 2.458 2.882 4.242M222.141 239.7c-.676-.817-1.246-1.498-1.977-2.412 1.476.446 3.113 1.125 4.801 2.4.051.596.054 1.092.054 1.092a14 14 0 0 1-1.971-.484c-.39-.194-.49-.31-.49-.31s-.312-.149-.417-.286M233.041 242.544c-1.099.076-2.288-.2-3.85-.461-.372.016-.794.012-.987-.378-.203-.803-.212-1.217-.222-1.63 1.657.706 3.313 1.41 5.06 2.47M306.23 272.993c-.489-.564-.755-1.04-1.123-1.771 1.46-2.702 2.768-2.63 3.813.47-.55.522-1.11.714-1.831 1.168-.161.262-.637.22-.86.133"/><path fill="#3b7d40" d="M606.902 425.44c.012-.613.062-.87.197-1.51.862.9 1.639 2.186 2.383 3.794-.624.3-1.216.278-2.102.238-.343-.733-.391-1.449-.478-2.521M613.168 438.708c-.77-1.346-1.404-3-1.939-5.029.758 1.324 1.416 3.022 1.939 5.029"/><path fill="#63a075" d="M364.627 487.983c-1.096.736-2.57 1.431-4.415 2.002 1.1-.764 2.568-1.404 4.415-2.002"/><path fill="#3b7d40" d="M615.364 446.712c-.569-.89-.954-2.079-1.29-3.62.524.873 1 2.097 1.29 3.62M584.546 480.155a45 45 0 0 1-7.222.37c2.07-.32 4.431-.4 7.222-.37"/><path fill="#e3be5e" d="M271.093 257.476c-.378.374-.89.437-1.785.536-.385.036-.862.032-1.079-.07-.222-.5-.228-.895-.244-1.59.984.074 1.979.443 3.108 1.124"/><path fill="#63a075" d="M358.711 490.105c-.468.69-1.272 1.34-2.423 1.915.464-.702 1.276-1.33 2.423-1.915"/><path fill="#eec170" d="M227.617 240.04c.375.448.384.862.392 1.585-.868.112-1.733-.085-2.794-.564-.196-.28-.199-.777-.173-1.026.753-.176 1.482-.102 2.575.006"/><path fill="#1d6b23" d="M579.28 472.966c-.726-.579-1.11-1.04-1.494-1.5l.36-.668c.922.475 1.845.95 2.827 1.738-.41.39-.88.47-1.692.43"/><path fill="#3b7d40" d="M545.232 472.531c-.269-.393-.261-.6.142-1.133 1.117-.32 1.838-.315 2.56-.31.014.293.068.58.16 1.076-.863.33-1.724.442-2.862.367M560.597 480.207c-.788.269-1.96.414-3.355.335.843-.302 1.907-.38 3.355-.335M393.195 470.798c-.23-.506-.223-.849-.194-1.449.649.04 1.276.337 1.985.987-.464.443-1.01.534-1.791.462"/><path fill="#eec170" d="M289.834 266.423c.555-.076 1.251.122 2.07.563-.562.065-1.245-.112-2.07-.563"/><path fill="#63a075" d="M532.03 352.167c-.1-.112.302-.319.527-.302.157.35-.06.483-.527.302"/><path fill="#eec170" d="M222.497 240.097c.06-.11.16.005.192.012.032.008-.253.098-.192-.012"/><path fill="#3b7d40" d="M585.437 551.13c-.167-.265-.049-.587.315-1.02.154.247.062.605-.315 1.02"/><path fill="#e3be5e" d="M297.008 251.409c4.77.523 9.645 1.303 14.476 2.297 3.964.816 6.767-1.324 7.643-6.48 2.614 2.713.43 8.584-3.737 8.52-5.368-.082-10.73-1.295-16.065-2.19-.821-.137-1.49-1.175-2.317-2.147"/><path fill="#f1b549" d="M285.053 177.939c1.958 1.106 3.916 2.213 5.95 3.65-3.964-.925-6.284.607-7.041 5.083a78 78 0 0 1-9.438-8.367c1.539.18 3.137.334 4.076 1.201 3.6 3.326 4.293 3.23 6.453-1.567M324.248 116.876c-1.426-2.275-2.512-4.688-3.599-7.1l1.988-1.235c1.78 2.23 3.56 4.458 5.397 7.029-1.112.617-2.28.893-3.786 1.306"/><path fill="#e3be5e" d="M270.395 308.92c-.095-.57.18-1.525.544-1.56 4.177-.403 8.368-.666 12.79-.712-3.634 4.241-8.216 3.672-13.334 2.273M562.032 226.35c1.557-.324 3.23-.56 4.781-.225 1.082.233 1.994 1.248 2.982 1.914-.66.956-1.318 1.913-2.329 2.912-2.024-1.394-3.697-2.831-5.434-4.6M232.397 313.865c2.79-4.512 7.589-2.281 12.183-2.836-.85.658-2.097 1.612-3.476 1.874-2.726.518-5.525.653-8.707.962M276.046 246.381c3.55.713 7.178 1.775 10.886 3.201-3.55-.708-7.18-1.779-10.886-3.2M230.25 236.194c3.399.456 7.005 1.218 10.692 2.327-3.442-.442-6.964-1.232-10.693-2.327M217.265 314.314c3.127-2.422 6.604-3.45 10.529-.744-3.293.548-6.779.78-10.529.744M216.101 235.609c-.934-.66-1.838-1.664-2.742-2.669 1.828.074 3.655.147 5.57.578-.874.82-1.836 1.283-2.828 2.09"/><path fill="#f1b549" d="M297.066 186.321c2.253.754 4.548 1.86 6.901 3.314-2.248-.756-4.554-1.858-6.901-3.314M288.982 190.628c-1.637-.71-3.275-1.809-4.968-3.237 2.347-.422 4.842-.659 4.968 3.237"/><path fill="#e3be5e" d="M288.335 250.097c1.868.014 4.06.186 6.461.65-1.906.031-4.022-.23-6.461-.65M319.024 243.654c-.635-1.267-4.865-3.317.728-3.978-.088 1.37-.391 2.499-.728 3.978M267.232 245.16c1.65-.101 3.486.094 5.534.55-1.641.09-3.495-.083-5.534-.55"/><path fill="#f1b549" d="M292.02 182.368c1.3.384 2.604 1.154 3.968 2.256-1.282-.402-2.623-1.136-3.969-2.256"/><path fill="#e3be5e" d="M204.002 318.628c-.842-.268-1.688-.914-2.535-1.56.606-.357 1.212-.712 2.141-1.08.345.746.367 1.504.394 2.64M311.872 274.69c-.94-.428-1.874-1.198-2.849-2.294.925.433 1.89 1.193 2.85 2.294M305.095 291.508c-.13.377-.306.393-.746.392-.218-.955-.172-1.893.15-2.882.367.675.459 1.402.596 2.49M309.295 285.9c.434-.637 1.189-1.27 2.283-1.918-.428.632-1.195 1.276-2.283 1.918M279.075 260.552c-.59-.066-1.284-.43-2.04-1.106.604.06 1.27.435 2.04 1.106M247.977 239.386c.591.076 1.263.458 1.996 1.147-.598-.075-1.257-.458-1.996-1.147M251.042 249.593c-.593-.109-1.272-.521-1.998-1.261.607.1 1.26.529 1.998 1.26M314.099 279.823c-.53-.324-.803-.784-1.088-1.525.44.275.893.833 1.088 1.525M329.395 235.998c.077-.6.467-1.255 1.16-1.974-.08.597-.464 1.257-1.16 1.974M327.843 225.754c-.52-.18-1.143-.632-1.814-1.395.54.167 1.124.646 1.814 1.395M327.34 236.456c.353-.284.739-.341 1.42-.384.098.54-.101 1.068-.556 1.733-.448-.283-.64-.703-.865-1.35M565.812 237.062c.17.076.176.254.178.7-.117-.022-.229-.31-.178-.7M239.925 245.686c-.263.143-.515-.05-.737-.594.24-.102.48.1.737.594M307.268 296.986c-.165-.075-.182-.28-.177-.79.122.015.224.337.177.79M566.144 240.212c.226-.114.474.081.753.58q-.339.177-.753-.58"/><path fill="#06821b" d="M449 348.011c-.749-.004-1.497-.008-2.918.01-1.142.34-1.612.657-2.082.975-.75.002-1.5.003-2.894-.282-2.698-.594-4.752-.902-8.103-1.403 4.728-6.09 11.733-.92 16.24-4.962-.844-.57-1.316-1.154-1.836-1.202-8.227-.756-16.45-1.723-24.697-2.04-4.767-.183-8.434-1.897-12.034-4.812-4.343-3.517-8.799-7.082-13.708-9.676-12.095-6.388-20.256-16.199-26.2-28.164-2.017-4.061-4.698-8.045-5.564-12.366-1.264-6.312-3.047-11.716-8.98-15.13-1.127-.647-1.502-2.601-1.99-4.23 4.742-1.764 9.252-3.249 13.759-4.364-.335 1.793-.666 3.215-1.341 4.674-1.436.863-2.53 1.69-4.007 2.808 3.084 2.16 5.28 3.581 6.72-.84 5.784 2.046 8.38 6.19 8.672 12.771.129 2.916-.324 6.582 1.215 8.573 4.37 5.656 9.344 10.935 14.62 15.775 5.173 4.747 11.042 8.73 16.522 13.152.983.794 1.852 1.984 2.278 3.169 1.623 4.518 4.882 5.699 9.386 5.656 3.558-.033 7.159.686 10.675 1.394 2.942.592 5.76 1.775 8.69 2.459 1.911.447 3.922.638 5.89.653 10.368.08 20.904 1.222 31.055-.252 9.131-1.326 18.323-4.603 26.596-8.785 7.669-3.875 15.775-8.888 20.734-15.587 5.594-7.554 13.938-13.245 16.849-22.806.65-2.137 1.814-4.153 2.966-6.092 1.047-1.762 2.57-3.247 3.57-5.03 1.094-1.951 2.92-4.358 2.51-6.12-1.08-4.634-.673-8.79 1.859-12.934 4.813-.334 9.18-.661 13.534-.6-1.198 1.984-2.762 6.84-3.459 10.456-.587 3.046-.466 6.904-2.298 8.89-3.569 3.872-3.785 8.361-4.14 12.846-.532 6.75-4.372 11.485-9.434 14.83-3.552 2.347-5.494 5.25-7.742 8.598-3.684 5.487-6.214 12.652-14.708 13.276-1.558.114-3.112 2.451-4.366 4.006-1.848 2.289-2.934 6.006-5.228 6.936-3.747 1.52-8.627.493-9.887 6.12-.092.41-1.792.592-2.759.655-10.57.687-21.143 1.324-31.714 1.99-1.633.103-3.261.283-4.892.427l.078 2.016c1.901 0 3.804-.043 5.703.011 2.432.069 4.884.068 7.276.432.584.09 1.386 1.518 1.322 2.265-.057.65-1.182 1.703-1.858 1.72-3.985.106-7.992.157-11.964-.148-5.033-.387-10.03-1.245-15.064-1.618-.899-.067-1.899 1.232-2.852 1.9"/><path fill="#077b1e" d="M449.275 348.297c.678-.954 1.678-2.253 2.577-2.186 5.034.373 10.031 1.23 15.064 1.618 3.972.305 7.979.254 11.964.149.676-.018 1.801-1.072 1.858-1.721.064-.747-.738-2.176-1.322-2.265-2.392-.364-4.844-.363-7.276-.432-1.9-.054-3.802-.01-5.703-.01l-.078-2.017c1.63-.144 3.259-.324 4.892-.427 10.571-.666 21.144-1.303 31.714-1.99.967-.063 2.667-.244 2.759-.655 1.26-5.627 6.14-4.6 9.887-6.12 2.294-.93 3.38-4.647 5.228-6.936 1.254-1.555 2.808-3.892 4.366-4.006 8.494-.624 11.024-7.79 14.708-13.276 2.248-3.348 4.19-6.251 7.742-8.598 5.062-3.345 8.902-8.08 9.435-14.83.354-4.485.57-8.974 4.139-12.845 1.832-1.987 1.711-5.845 2.298-8.89.697-3.617 2.261-8.473 3.782-10.44 2.444.275 4.553.92 6.663 1.567l10.228 1.767c-2.35 6.373-.677 13.313-4.969 19.37-1.901 2.683-1.268 7.045-2.312 10.486-1.058 3.489-2.411 6.992-4.27 10.111-2.954 4.956-6.444 9.592-9.69 14.375-3.794 5.592-7.28 11.429-11.496 16.682-1.667 2.077-5.23 2.517-7.407 4.33-2.792 2.326-5.272 5.124-7.446 8.047-.87 1.172-.016 4.181-.901 4.688-3.102 1.776-6.528 3.564-10 3.998-6.882.86-13.875.996-20.827 1.117-13.88.24-27.762.34-41.644.346-4.562.002-9.125-.467-13.963-1.007M354 265.006c.722 1.352 1.097 3.306 2.223 3.954 5.934 3.413 7.717 8.817 8.981 15.129.866 4.321 3.547 8.305 5.565 12.366 5.943 11.965 14.104 21.776 26.2 28.164 4.908 2.594 9.364 6.16 13.707 9.676 3.6 2.915 7.267 4.63 12.034 4.812 8.247.317 16.47 1.284 24.697 2.04.52.048.992.631 1.836 1.202-4.507 4.042-11.512-1.127-16.24 4.962 3.351.501 5.405.809 7.728 1.4-14.254-.048-28.78-.312-43.299-.763-3.361-.105-6.65-.588-5.704-5.712.202-1.096-2.086-3.34-3.655-3.947-4.737-1.831-8.084-5.3-12.003-8.229-9.707-7.254-16.095-17.3-24.198-25.853-1.522-1.607-1.987-4.239-2.862-6.429-1.13-2.83-1.911-5.837-3.338-8.502-1.636-3.056-3.683-5.608-1.664-9.505 1.01-1.95.504-4.686.99-7.716 3.205-2.783 6.103-4.916 9.002-7.049"/><path fill="#117817" d="M354.233 264.728c-3.132 2.411-6.03 4.544-9.083 6.98-.969.046-1.783-.212-2.892-.608 12.703-12.407 27.86-19.368 46.008-19.16 3.942.045 7.888-.343 12.069-.05-2.632.708-5.5.934-8.8 1.143-2.465-.008-4.497 0-6.869-.002-1.115.323-1.89.656-2.67 1.232-.007.243-.02.728-.416.735-4.597 2.185-10.3.393-13.585 4.997-4.51 1.485-9.019 2.97-13.762 4.733"/><path fill="#297d1a" d="M574.043 253.63c-2.18-.29-4.29-.935-6.722-1.598-4.69.31-9.056.637-14.286.965-2.251-.01-3.64-.022-5.127-.268-.353-.677-.606-1.119-.859-1.561 6.555-.198 13.173.089 19.645-.747 5.117-.66 10.067-2.663 15.068-4.144 2.693-.797 5.339-1.75 8.717-2.59 1.32-.461 1.928-.966 2.537-1.47 1.117-1.32 2.233-2.639 3.686-4.024.354.322.372.71.446 1.383.055.286-.14.49-.341.611-.201.122-.27.394-.27.394l.258.157c-1.463 1.65-2.613 3.952-4.445 4.83-5.944 2.85-12.138 5.177-18.307 8.062"/><path fill="#0d5e2c" d="M321.208 294.854c.386-1.275 1.125-2.524 2.149-3.92 2.536 2.71-.045 3.118-2.149 3.92"/><path fill="#077b1e" d="M444.298 348.978q.258-.45 1.411-.952-.257.45-1.41.952"/><path fill="#3b7d40" d="M596.824 240.623c-.03.115-.287-.042-.287-.042s.069-.272.174-.29.142.217.113.332"/><path fill="#f1b549" d="M270.859 175.05c-5.56-4.466-11.176-8.867-16.613-13.478-.698-.591-.472-2.274-.673-3.45 1.18-.022 2.651-.512 3.49.011 5.285 3.302 10.43 6.828 15.456 10.717a13 13 0 0 1-2.63 1.575c.375 1.792.672 3.209.97 4.625"/><path fill="#f6af32" d="M271.018 175.32c-.457-1.686-.754-3.103-1.13-4.895.477-.22 1.472-.68 2.775-1.268 4.123 2.754 7.936 5.636 12.07 8.65-1.84 4.93-2.532 5.025-6.133 1.699-.94-.867-2.537-1.021-4.221-1.5-1.326-.804-2.264-1.61-3.361-2.686"/><path fill="#059b0f" d="M502.012 361.96c2.027.05 4.054.1 6.586.507 1.487.17 2.47-.02 3.452-.208 4.356-.04 8.712-.079 13.52.334.946 5.766 5.101 2.43 7.425 3.789-2.863 4.542-3.533 8.965-2.095 13.866.37 1.263-.562 2.863-.685 4.326-.228 2.709-.667 5.473-.36 8.137.61 5.27 1.67 10.488 2.468 15.275-8.555 1.736-9.855 9.758-15.358 13.044-1.23.735-2.294 2.768-2.34 4.238-.074 2.354.5 4.836 1.319 7.073.52 1.418 3.047 2.814 2.794 3.647-.482 1.582-2.094 3.134-3.628 4.02-3.63 2.096-7.82 2.977-10.224 7.243-1.135 2.014-4.327 2.87-5.835 3.79-2.163-2.593-3.305-4.806-5.117-5.802-1.01-.556-4.117.48-4.58 1.54-1.76 4.025-4.897 3.209-8 3.116-11.36-.338-22.72-.62-34.08-.978-1.45-.045-2.992-.162-4.32-.683-3.602-1.414-6.986-3.881-10.686-4.455-8.546-1.324-13.196-6.893-17.108-13.674-.485-.841-.801-2.378-1.382-2.475-7.059-1.179-7.463-7.346-8.214-12.197-.742-4.79-2.264-7.228-8.235-6.765.82-3.422.712-6.723 2.277-8.698 3.03-3.823 4.46-9.354 2.586-13.64-1.685-3.852-3.132-7.821-4.456-11.815-1.063-3.209-2.224-5.913-6.394-5.634-.735.05-1.559-1.22-2.341-1.88 4.106-.337 8.207-.794 12.32-.969 2.836-.12 3.824-1.524 3.67-4.526.756-.43 1.51-.46 2.726-.09 3.543 1.809 6.62 3.156 9.268-.373 2.048-.013 4.095-.026 6.586.371.107 3.371-.633 6.351-.494 9.29.567 11.963-4.28 23.915-.06 35.869 1.318 3.733-.073 8.503 4.33 11.06 5.323 3.095 9.218 8.936 16.408 8.465.588-.039 1.527.32 1.772.778 2.515 4.705 7.624 4.062 11.603 5.539 8.63 3.204 19.384.069 25.048-6.474.988-1.141 3.118-1.922 4.667-1.842 7.657.398 10.8-5.037 13.713-10.475 3.729-6.963 7.651-13.94 10.252-21.346 1.49-4.24.956-9.384.514-14.043-.328-3.467-1.97-6.81-3.028-10.208-1.56-1.246-4.378-1.371-7.013-2.13-1.575-.453-2.865-1.898-3.894-2.897 1.8-.347 3.212-.693 4.623-1.04"/><path fill="#05980b" d="M388.578 367c1.205.661 2.029 1.93 2.764 1.88 4.17-.278 5.331 2.426 6.394 5.635 1.324 3.994 2.77 7.963 4.456 11.816 1.875 4.285.444 9.816-2.586 13.64-1.565 1.974-1.457 5.275-2.277 8.697 5.97-.463 7.493 1.975 8.235 6.765.75 4.85 1.155 11.018 8.214 12.197.581.097.897 1.634 1.382 2.475 3.912 6.781 8.562 12.35 17.108 13.674 3.7.574 7.084 3.04 10.687 4.455 1.327.521 2.868.638 4.32.683 11.358.358 22.72.64 34.078.978 3.104.093 6.24.909 8-3.116.464-1.06 3.57-2.096 4.581-1.54 1.812.996 2.954 3.21 5.117 5.802 1.508-.92 4.7-1.776 5.835-3.79 2.404-4.266 6.593-5.147 10.224-7.243 1.534-.886 3.146-2.438 3.628-4.02.253-.833-2.275-2.229-2.794-3.647-.82-2.237-1.393-4.719-1.32-7.073.047-1.47 1.11-3.503 2.341-4.238 5.503-3.286 6.803-11.308 15.358-13.044-.798-4.787-1.857-10.005-2.467-15.275-.308-2.664.131-5.428.36-8.137.122-1.463 1.054-3.063.684-4.326-1.438-4.901-.768-9.324 2.505-13.867 3.152.546 6.355.905 8.445 2.62 1.198.982.835 4.177.751 6.36-.487 12.7-1.083 25.397-1.714 38.092-.037.743-.52 1.677-1.098 2.145-3.692 2.982-3.81 6.998-3.934 11.285-.058 1.987-1.487 4.043-2.63 5.857-1.049 1.664-2.54 3.052-3.852 4.549-1.342 1.53-2.567 3.202-4.091 4.527-1.856 1.614-3.952 2.956-5.976 4.37-5.385 3.761-8.174 10.879-15.608 12.037-.707.11-1.455.882-1.908 1.537-2.785 4.028-6.879 3.645-10.822 3.025-9.795-1.538-19.307-1.543-28.23 3.64-.922.536-2.235.532-3.37.55-3.93.063-7.863.024-12.108.024l-.293 3.038c-3.993-.314-7.986-.627-12.713-.97-.926-.023-1.117-.016-1.309-.01-1.699-.004-3.398-.008-5.522-.033-.3-3.6-2.83-4.09-5.431-3.968-3.574.167-4.93-1.1-5.092-4.843-.37-8.568-1.548-9.605-10.317-11.275-.163-.03-.373.014-.488-.073-4.744-3.602-8.558-8.621-15.052-9.667-.376-.06-.874-3.781-.185-5.28 2.953-6.42 4.214-12.44-1.454-18.142-.823-.828-1.313-2.343-1.335-3.551-.09-4.92.66-9.95-3.335-13.983-.533-.539-.446-1.859-.38-2.798.51-7.2 1.358-14.391 1.464-21.594.029-1.982-2.097-3.995-3.721-6.85z"/><path fill="#117817" d="M371.483 361.56c2.622-.255 5.547-.295 8.9-.27-2.581.206-5.589.345-8.9.27"/><path fill="#27781d" d="M418 483.189c20.358-.036 40.717-.072 61.54-.032 1.975 1.661 3.751 4.8 4.957 4.594 12.267-2.092 20.52 6.025 29.897 11.195 13.97 7.703 23.24 20.393 33.559 31.96 1.543 1.729 3.263 3.333 4.591 5.214 2.464 3.49 6.61 6.406 4.51 11.704-.158.4-.035 1.066.21 1.446 2.85 4.417 5.748 8.802 8.164 12.48-1.335 1.349-2.878 2.908-4.418 4.876-3.092 2.37-6.188 4.332-9.646 6.327.193-1.112.75-2.257 1.473-3.748l-5.13-3.565 4.256-3.273c-1.72-3.264-3.804-6.443-5.149-9.909-5.586-14.397-16.068-25.353-26.203-36.336-3.554-3.851-8.55-7.909-15.203-7.273-1.921.184-4.49-.754-5.914-2.085-4.373-4.086-8.366-8.556-14.39-10.318-2.585-.756-5.157-2.39-7.7-2.321-15.412.422-30.883.578-46.178 2.25-5.208.57-9.966 5.268-14.924 8.089-2.633 1.498-5.277 4.316-7.874 4.268-6.208-.115-10.23 3.253-14.405 6.768-3.677 3.096-7.268 6.294-10.892 9.453-.613.535-1.628 1.03-1.733 1.664-1.597 9.655-10.425 14.48-14.758 22.28-.702 1.263-1.387 2.596-1.738 3.984-1.476 5.846-2.556 11.807-4.33 17.556-.87 2.817-2.942 5.264-4.524 8.228-2.448.664-4.84.978-7.635.9.594-4.804 1.714-9.191 2.559-13.63 1.378-7.243 2.549-14.525 3.883-21.777.172-.935.579-2.023 1.247-2.639 5.251-4.836 8.546-11.262 13.006-16.51 6.832-8.039 16.19-13.874 23.972-21.183 5.942-5.58 11.57-10.714 20.647-9.113 1.139.201 2.74-2.214 4.126-3.417-2.753-2.753.013-5.406.147-8.107"/><path fill="#2c8217" d="M545.068 573.688c-3.769 1.355-7.487 2.348-11.636 2.895-.479-5.873.66-11.206-3.524-16.204-4.8-5.733-8.242-12.581-12.788-18.553-5.006-6.577-10.24-12.99-18.698-15.767-4.036-1.325-8.109-3.278-11.42-5.891-4.088-3.227-8.362-3.92-13.329-4.314-12.192-.967-24.405 2.629-36.584-.409-1.159-.29-2.77 1.52-4.251 2.177-3.413 1.515-6.898 2.867-10.31 4.385-2.627 1.169-5.263 2.358-7.749 3.79-1.552.894-2.911 2.175-4.222 3.425-6.54 6.232-13.097 12.449-19.511 18.809-2.176 2.158-5 4.443-5.71 7.148-1.962 7.466-2.964 15.184-4.345 22.802-4.347.019-8.693.038-13.501.073.209-5.392.429-10.91 1.703-16.172.894-3.694 2.739-7.399 5.005-10.476 6.858-9.316 14.476-18.085 21.116-27.546 4.472-6.373 11.111-7.919 17.578-10.4 2.665-1.022 5.177-2.658 7.467-4.4 4.69-3.565 8.873-6.685 15.734-6.367 11.013.511 22.116-.955 33.182-1.572 6.696-.374 12.919.104 18.945 4.187 7.31 4.953 15.716 8.274 23.118 13.111 4.884 3.192 9.33 7.396 13.091 11.884 6.248 7.453 11.923 15.404 17.536 23.359 1.557 2.207 2.172 5.13 2.982 7.797.742 2.441 1.448 4.96 1.616 7.482.095 1.423-.926 2.921-1.495 4.747"/><path fill="#0b850d" d="M548.184 470.787c-.972.296-1.693.29-2.775.303-.372-.17-.384-.359-.362-1.2 2.224-4.859 4.48-9.033 6.59-13.28 3.079-6.192 10.21-9.401 11.96-16.636.769-3.175 2.666-6.075 3.452-9.249 1.913-7.727 7.787-14.21 6.983-22.787-.413-4.41-.197-8.555 4.47-11.23 1.114-.638 1.119-3.215 1.634-4.9a771 771 0 0 1 4.683 4.231c.672.574.945.765 1.219.955.114.307.3.56.769.873-1.115 7.35-1.908 14.738-3.939 21.77-1.524 5.279-4.636 10.1-7.05 15.12-.928 1.933-2.29 3.761-2.754 5.796-2.35 10.297-7.995 18.494-16.168 25.485 1.205 1.06 2.1 1.846 2.733 2.401-3.6.659-7.398 1.353-11.445 2.348"/><path fill="#117817" d="M352.986 452.662a565 565 0 0 1-20.3-19.852c-1.278-1.316-1.824-3.344-2.403-5.571 3.061-3.029 4.733-5.607 2.778-9.624-1.727-3.546-3.703-7.396-3.882-11.19-.517-10.948-.12-21.936-.222-32.906-.029-3.15-.529-6.295-.884-10.227l1.96-2.273c3.744-.006 7.489-.011 11.612.006-1.178 1.235-2.734 2.45-5.04 4.247l4.659 2.041c-.769 3.87-1.778 7.603-2.22 11.401-2.057 17.73 3.885 34.41 7.075 51.44.3 1.597 1.79 2.969 2.897 4.712-.808 1.083-2.097 2.154-2.427 3.465-.26 1.035.347 3.134 1.107 3.445 6.53 2.67 6.984 3.386 5.29 10.886"/><path fill="#039505" d="M580.129 391.601c-.508 1.892-.513 4.469-1.628 5.108-4.666 2.674-4.882 6.818-4.469 11.229.804 8.577-5.07 15.06-6.983 22.787-.786 3.174-2.683 6.074-3.452 9.25-1.75 7.234-8.881 10.443-11.96 16.636-2.11 4.246-4.366 8.42-6.598 12.997-8.76.392-17.477.415-26.673.492-1.19.044-1.902.034-3.113-.223-1.093-.091-1.687.066-2.281.224-5.027.268-10.054.536-15.534.372-1.395-1.109-2.328-2.356-3.281-2.372-8.83-.153-17.664-.17-26.493-.004-1.232.023-2.442 1.255-3.662 1.927-4.706.28-9.412.56-14.755.604a22 22 0 0 0-2.277-.552s-.014-.022-.008-.03c.113-1.13.221-2.251.298-3.047 4.245 0 8.177.039 12.108-.024 1.135-.018 2.448-.014 3.37-.55 8.923-5.183 18.435-5.178 28.23-3.64 3.943.62 8.037 1.003 10.822-3.025.453-.655 1.201-1.427 1.908-1.537 7.434-1.158 10.223-8.276 15.608-12.038 2.024-1.413 4.12-2.755 5.976-4.369 1.524-1.325 2.749-2.996 4.091-4.527 1.312-1.497 2.803-2.885 3.852-4.55 1.143-1.813 2.572-3.87 2.63-5.856.124-4.287.242-8.303 3.934-11.285.579-.468 1.061-1.402 1.098-2.145.63-12.695 1.227-25.392 1.714-38.092.084-2.183.447-5.378-.751-6.36-2.09-1.715-5.293-2.074-8.44-3.001-2.739-.977-6.894 2.359-7.378-3.338.428-.427.845-.47 1.706-.122 4.047.41 7.65.429 11.254.448 11.214 2.4 22.566 4.543 30.437 14.094.875 1.063 1.16 2.612 1.682 4.708 2.963 3.58 5.965 6.388 8.967 9.195 0 0 .044.41.05.616"/><path fill="#0c9f1e" d="M501.714 361.668c-1.113.639-2.524.985-4.792 1.331-6.359 1.123-12.827-2.53-17.952 2.838.704.604.813.773.954.805.637.147 1.336.136 1.918.395 4.985 2.216 12.435.933 13.724 8.5.906 5.315.842 10.814.98 16.237.18 7.063-2.28 12.246-10.11 13.472-.65.102-.97 1.827-1.59 2.692-3.16 4.413-5.017 10.257-12.552 9.187-4.735-.672-9.643-.125-14.473-.126-8.74-.001-10.678-1.547-12.844-9.933-.28-1.09-1.04-2.73-1.837-2.899-3.843-.816-3.65-4.006-4.04-6.613s.537-5.516-.227-7.942c-1.828-5.811-2.196-10.844.688-16.855 1.61-3.356 2.918-4.995 6.094-5.687 1.311-.286 2.663-.386 3.996-.571l.176-2.086c-2.475-.47-4.978-.833-7.42-1.44-3.11-.773-6.949 1.984-9.397-1.936 21.823-.02 43.646-.046 65.469-.044.978 0 1.957.25 3.235.675"/><path fill="#079e16" d="M432.56 361.017c2.898 3.94 6.738 1.183 9.848 1.956 2.441.607 4.944.97 7.42 1.44q-.09 1.043-.177 2.086c-1.333.185-2.685.285-3.996.57-3.176.693-4.485 2.332-6.094 5.688-2.884 6.01-2.516 11.044-.688 16.855.764 2.426-.162 5.334.228 7.942.39 2.607.196 5.797 4.04 6.613.796.17 1.555 1.809 1.836 2.899 2.166 8.386 4.104 9.932 12.844 9.933 4.83 0 9.738-.546 14.473.126 7.535 1.07 9.391-4.774 12.552-9.187.62-.865.94-2.59 1.59-2.692 7.83-1.226 10.29-6.409 10.11-13.472-.138-5.423-.074-10.922-.98-16.238-1.29-7.566-8.74-6.283-13.724-8.5-.582-.258-1.28-.247-1.918-.394-.14-.032-.25-.201-.954-.805 5.125-5.369 11.593-1.715 17.563-2.838 1.885 1 3.175 2.445 4.75 2.898 2.635.759 5.453.884 7.013 2.13 1.057 3.398 2.7 6.74 3.028 10.208.442 4.66.975 9.803-.514 14.043-2.6 7.406-6.523 14.383-10.252 21.346-2.913 5.438-6.056 10.873-13.713 10.475-1.549-.08-3.679.7-4.667 1.842-5.664 6.543-16.418 9.678-25.048 6.474-3.979-1.477-9.088-.834-11.603-5.539-.245-.458-1.184-.817-1.772-.778-7.19.471-11.085-5.37-16.409-8.464-4.402-2.558-3.011-7.328-4.33-11.061-4.22-11.954.628-23.906.061-35.869-.139-2.939.6-5.919.932-9.263 2.696-.404 5.398-.425 8.55-.424"/><path fill="#1d6b23" d="M329.604 361.004c-.478 1.067-1.385 2.119-1.53 2.288.354 3.932.854 7.077.883 10.227.101 10.97-.295 21.958.222 32.905.18 3.795 2.155 7.645 3.882 11.191 1.955 4.017.283 6.595-2.797 9.252-3.51-6.596-7.57-13.09-9.665-20.166-2.706-9.14-4.197-18.698-5.467-28.175-.458-3.41 1.24-7.107 2.02-11-1.17-.47-3.671-1.476-6.173-2.48l.214-1.983c5.994-.691 11.988-1.383 18.41-2.06"/><path fill="#0b850d" d="M580.04 390.624a90 90 0 0 1-8.92-8.466c4.42.949 7.539 3.604 8.92 8.466"/><path fill="#0c9f1e" d="M538.706 362.696a58.3 58.3 0 0 1-10.653-.13c3.37-.295 6.869-.228 10.653.13M416.537 361.017c-2.2 3.555-5.277 2.208-8.442.421 2.609-.402 5.302-.424 8.442-.421M511.667 362.183c-.6.265-1.582.453-2.64.34.703-.34 1.48-.378 2.64-.34"/><path fill="#117817" d="M585.935 396.76q-.254.065-.826-.568.256-.064.826.568"/><path fill="#1d6b23" d="M374.08 486.463c.422-.124.843-.249 1.881-.112 3.68-.286 8.552 3.676 9.102-3.14.735-.043 1.47-.085 2.617.27.824 1.301 1.345 2.174 1.625 3.119.426 1.437 1.423 3.675.858 4.231-1.112 1.095-3.102 1.407-4.788 1.762-.851.18-1.831-.252-1.805-.248-3.676 3.419-6.788 6.179-9.742 9.097-2.912 2.876-5.54 6.046-8.513 8.853-7.112 6.713-13.715 13.741-17.27 23.123-2.257 5.958-4.704 11.846-7.145 17.733-1.489 3.593-3.47 7.018-4.604 10.71-1.198 3.902-.94 8.364-2.626 11.97-1.773 3.79-.984 6.346 1.312 9.116-6.111 1.142-12.37 1.888-16.29 7.758-.728 1.09-2.173 1.698-3.287 2.53l-1.727-.614c.462-5.369.985-10.733 1.368-16.107.323-4.527 1.348-9.227.54-13.568-1.781-9.588 4.07-16.712 6.81-24.834a121 121 0 0 1 3.635-9.506c.727-1.672 1.832-3.193 2.87-4.712.53-.774 1.781-1.335 1.866-2.088.998-8.809 7.12-13.309 14.014-17.368 2.069-1.218 3.576-3.353 5.494-4.874 1.655-1.313 3.468-2.462 5.32-3.488 4.403-2.438 8.87-4.76 13.393-7.465.557-.645 1.034-.955 2.021-1.09 1.364-.235 2.218-.646 3.071-1.058"/><path fill="#247321" d="M335.316 582.797c-2.63-2.62-3.419-5.176-1.646-8.966 1.686-3.606 1.428-8.068 2.626-11.97 1.134-3.692 3.115-7.117 4.604-10.71 2.44-5.887 4.888-11.775 7.146-17.733 3.554-9.382 10.157-16.41 17.269-23.123 2.973-2.807 5.601-5.977 8.513-8.853 2.954-2.918 6.066-5.678 9.742-9.097-.026-.004.954.428 1.805.248 1.686-.355 3.676-.667 4.788-1.762.565-.556-.432-2.794-.858-4.231-.28-.945-.8-1.818-1.26-3.063 9.645-.387 19.335-.434 29.49-.414.331 2.767-2.435 5.42.318 8.173-1.387 1.203-2.987 3.618-4.126 3.417-9.077-1.601-14.705 3.532-20.647 9.113-7.782 7.309-17.14 13.144-23.972 21.183-4.46 5.248-7.755 11.674-13.006 16.51-.668.616-1.075 1.704-1.247 2.64-1.334 7.25-2.505 14.533-3.883 21.776-.845 4.439-1.965 8.826-2.971 13.61-4.123 1.284-8.237 2.193-12.685 3.252"/><path fill="#129811" d="M391.969 253.05c2.867-.226 5.734-.452 8.74-.98 1.108-.485 2.077-.826 3.045-.826 29.79.013 59.58.059 89.89.498 1.132.695 1.743.991 2.355 1.53 0 .242-.003.726-.468.726-22.156.003-43.846.008-65.997.008-5.151-.002-9.842 0-14.99 0-5.75-.349-10.93-.117-15.62 2.61-1.233-.79-2.426-1.124-3.532-1.64-1.183-.553-2.286-1.277-3.423-1.927"/><path fill="#2c8217" d="M496 253.03c-.613-.297-1.224-.593-1.91-1.14 8.182-.416 16.437-.638 24.693-.731 9.109-.103 18.219-.09 27.797-.059.722.51.975.952 1.163 1.881-.623.668-1.182.85-2.195 1.02-6.816-.325-13.178-.64-19.994-.972-3.49-.003-6.524.012-9.995.012-2.479.004-4.52.023-7.024.015A2016 2016 0 0 0 496 253.03"/><path fill="#3b7d40" d="M592.745 242.311c-.338.41-.946.915-1.888 1.337.316-.469.966-.855 1.888-1.337"/><path fill="#348c11" d="M523.01 577.993c-3.029.006-6.058.012-9.784-.262-3.786-.737-4.876-2.54-5.36-5.628-.52-3.316-1.286-7.178-3.37-9.548-5.014-5.7-10.493-11.149-16.498-15.771-4.352-3.35-9.609-6.496-14.882-7.48-11.41-2.126-23.105-2.195-34.505.782-2.895.756-5.815 2.25-8.16 4.113-5.14 4.084-9.277 10.061-15.006 12.617-7.487 3.34-8.26 9.088-9.488 15.424-.382 1.975-1.305 3.845-1.981 5.763-4.353.003-8.706.006-13.52-.437.04-7.07.726-13.553 4.857-19.254 4.505-6.218 12.375-9.417 15.156-17.154.223-.622 1.326-.922 2.013-1.382 3.303-2.21 6.485-4.639 9.943-6.574 3-1.679 6.232-3.716 9.503-4.007 12.195-1.085 24.462-1.328 36.674-2.244 14.475-1.085 24.544 8.037 35.63 14.856.788.484 1.322 1.484 1.806 2.34 3.678 6.504 7.537 12.74 13.71 17.42 1.882 1.425 2.652 4.82 3.13 7.46.526 2.901.127 5.97.132 8.966"/><path fill="#308615" d="M523.446 578.003c-.44-3.006-.042-6.075-.568-8.977-.478-2.638-1.248-6.034-3.13-7.46-6.173-4.678-10.032-10.915-13.71-17.42-.484-.855-1.018-1.855-1.805-2.34-11.087-6.818-21.156-15.94-35.63-14.855-12.213.916-24.48 1.159-36.675 2.244-3.27.291-6.502 2.328-9.503 4.007-3.458 1.935-6.64 4.363-9.943 6.574-.687.46-1.79.76-2.013 1.382-2.781 7.737-10.65 10.936-15.156 17.154-4.131 5.7-4.816 12.183-5.322 19.243-2.702.44-5.4.445-8.55.438.931-7.63 1.933-15.348 3.895-22.814.71-2.705 3.534-4.99 5.71-7.148 6.414-6.36 12.971-12.577 19.511-18.81 1.31-1.249 2.67-2.53 4.222-3.424 2.486-1.432 5.122-2.621 7.749-3.79 3.412-1.518 6.897-2.87 10.31-4.385 1.48-.657 3.092-2.466 4.251-2.177 12.179 3.038 24.392-.558 36.584.409 4.967.394 9.241 1.087 13.33 4.314 3.31 2.613 7.383 4.566 11.42 5.89 8.458 2.778 13.691 9.19 18.697 15.768 4.546 5.972 7.988 12.82 12.788 18.553 4.184 4.998 3.045 10.331 3.095 16.202-3.04.773-6.08 1.102-9.557 1.422"/><path fill="#3b9310" d="M404.236 578.277c.416-2.192 1.339-4.062 1.721-6.037 1.228-6.336 2.001-12.084 9.488-15.424 5.729-2.556 9.866-8.533 15.006-12.617 2.345-1.863 5.265-3.357 8.16-4.113 11.4-2.977 23.094-2.908 34.505-.781 5.273.983 10.53 4.128 14.882 7.479 6.005 4.622 11.484 10.07 16.498 15.771 2.084 2.37 2.85 6.232 3.37 9.548.484 3.087 1.574 4.891 4.907 5.623-6.767.58-13.778.886-21.325.78-1.997-3.433-3.366-6.503-4.94-9.465-3.388-6.377-10.098-8.052-15.794-11.309-6.284-3.592-13.616-6.143-19.342-2.811-5.962 3.468-12.625 4.255-18.361 7.605-.418.243-.732.675-1.07 1.042-4.826 5.247-8.182 11.938-14.987 15.24-4.153-.086-8.306-.172-12.718-.531"/><path fill="#459d10" d="M417.423 578.875c6.336-3.369 9.692-10.06 14.519-15.307.337-.367.651-.799 1.069-1.042 5.736-3.35 12.399-4.137 18.36-7.605 5.727-3.332 13.06-.781 19.343 2.811 5.696 3.257 12.406 4.932 15.795 11.309 1.573 2.962 2.942 6.032 4.477 9.415-24.316.403-48.705.445-73.563.42"/><path fill="#2c6d39" d="M384.682 483.177c-.169 6.85-5.04 2.888-8.39 3.156 2.48-1.25 5.245-2.22 8.39-3.156M373.737 486.4c-.51.475-1.364.886-2.424 1.112.555-.515 1.318-.845 2.424-1.112"/><path fill="#0f8d11" d="M464.47 470.032c.752-.68 1.962-1.912 3.194-1.935a735 735 0 0 1 26.493.004c.953.016 1.886 1.263 2.859 2.337-10.672.132-21.375-.133-32.546-.406M513.128 470.312c.438-.369 1.032-.526 1.767-.431-.443.383-1.027.513-1.767.431"/><path fill="#117817" d="M447.15 470.302c.367-.12.914-.015 1.65.297-.363.114-.916.022-1.65-.297"/><path fill="#0b850d" d="M433.052 469.222c.085-.171.276-.178.756-.165-.024.124-.336.227-.756.165"/><path fill="#068819" d="M546.002 254.011c.559-.18 1.118-.362 1.841-.795 1.553-.24 2.94-.23 4.745-.212-1.668 4.142-2.074 8.299-.994 12.933.41 1.762-1.417 4.169-2.511 6.12-1 1.783-2.523 3.268-3.57 5.03-1.152 1.94-2.316 3.955-2.966 6.092-2.911 9.56-11.255 15.252-16.849 22.806-4.96 6.699-13.065 11.712-20.734 15.587-8.273 4.182-17.465 7.46-26.596 8.785-10.151 1.474-20.687.333-31.055.252-1.968-.015-3.979-.206-5.89-.653-2.93-.684-5.748-1.867-8.69-2.459-3.516-.708-7.117-1.427-10.675-1.394-4.504.043-7.763-1.138-9.386-5.656-.426-1.185-1.295-2.375-2.278-3.169-5.48-4.422-11.35-8.405-16.523-13.152-5.275-4.84-10.25-10.12-14.62-15.775-1.538-1.99-1.085-5.657-1.214-8.573-.292-6.581-2.888-10.725-8.713-13.091-1.05-.777-1.69-1.23-2.329-1.684.332-1.423.663-2.845.998-4.638 3.286-4.974 8.99-3.182 13.916-5.31.29.68-.138 1.851-.576 1.855-4.566.035-5.037 2.402-3.49 5.908.793 1.797 1.825 3.487 2.708 5.246 1.178 2.346 2.953 4.608 3.358 7.088 1.6 9.79 6.006 17.823 13.755 23.996 3.236 2.578 6.676 4.913 9.801 7.615 4.04 3.492 9.353 5.738 11.037 11.668.332 1.171 2.777 2.294 4.355 2.469 8.046.89 16.137 1.367 24.195 2.163 15.519 1.533 31.004 3.142 45.301-5.53.885-.538 2.771-.362 3.68.246 3.31 2.212 5.403.948 7.628-1.719 1.677-2.01 3.81-3.673 5.874-5.322 2.944-2.35 6.564-4.084 8.918-6.898 6.223-7.438 13.182-14.151 17.99-22.96 4.135-7.577 10.657-13.79 8.71-23.527-.204-1.017.543-2.223.849-3.342"/><path fill="#117817" d="M366.652 265.039c.982.417 1.622.87 2.303 1.645-1.03 4.744-3.226 3.323-6.31 1.163 1.477-1.118 2.57-1.945 4.007-2.808"/><path fill="#068e16" d="M545.548 254c.148 1.13-.599 2.336-.396 3.353 1.948 9.738-4.574 15.95-8.71 23.527-4.807 8.809-11.766 15.522-17.989 22.96-2.354 2.814-5.974 4.548-8.918 6.898-2.065 1.649-4.197 3.311-5.874 5.322-2.225 2.667-4.318 3.931-7.627 1.72-.91-.609-2.796-.785-3.68-.248-14.298 8.673-29.783 7.064-45.302 5.531-8.058-.796-16.149-1.274-24.195-2.163-1.578-.175-4.023-1.298-4.355-2.47-1.684-5.929-6.997-8.175-11.037-11.667-3.125-2.702-6.565-5.037-9.8-7.615-7.75-6.173-12.156-14.205-13.756-23.996-.405-2.48-2.18-4.742-3.358-7.088-.883-1.76-1.915-3.45-2.708-5.246-1.547-3.506-1.076-5.873 3.49-5.908.438-.004.867-1.176.971-1.862-.328-.057-.315-.542.027-.793 1.12-.57 1.897-.892 2.675-1.212 2.032-.01 4.064-.018 6.529-.01 1.571.666 2.674 1.39 3.857 1.942 1.106.517 2.299.852 3.53 1.896.074.797.073.966-.264 1.168-1.001.789-1.666 1.544-2.33 2.299.888.551 1.777 1.103 2.714 2.039.683 2.202 2.008 4.089 1.836 5.826-.776 7.806 5.01 10.497 10.13 14.178.93 4.31 2.161 7.984 7.179 8.883 2.736 2.095 5.278 3.918 7.87 6.085 3.344 2.11 6.638 3.878 10.31 5.648 1.132.003 1.887.004 2.896.286 3.413.427 6.571.573 10.185.72 9.34 0 18.232.166 27.107-.137 1.848-.063 3.638-1.867 5.893-2.868 1.747-.009 3.178.326 4.338-.092 3.13-1.128 6.145-2.577 9.487-4.105 4.433-3.074 8.583-5.941 13.093-8.868 1.464-2.469 1.925-5.988 3.796-7.073 5.028-2.914 5.11-7.151 4.876-12.204.983-1.407 1.725-2.874 2.902-3.442 4.333-2.088 4.631-5.292 3.233-9.48.728-1.067 1.282-1.877 1.836-2.686 6.361.314 12.723.628 19.539.953"/><path fill="#129811" d="M384.666 253.031c-.438.332-1.215.653-2.329.982.44-.326 1.214-.66 2.329-.982"/><path fill="#059b0f" d="M482.01 300.998c-1.817 1.001-3.607 2.805-5.455 2.868-8.875.303-17.767.136-27.355-.144-3.866-.427-7.029-.573-10.191-.72-.755 0-1.51-.002-2.692-.349-3.721-2.113-7.015-3.88-10.31-5.647-2.542-1.824-5.084-3.647-7.82-6.134-.65-4.993-1.765-8.763-7.182-8.867-5.116-3.305-10.903-5.996-10.127-13.802.172-1.737-1.153-3.624-1.836-6.225-.047-1.845-.048-2.909-.048-3.972l.006-.76c4.614-3.357 9.794-3.589 15.539-2.862-.166 1.706-.737 3.056-1.408 4.354-1.562 3.022-.557 10.867 1.752 13.083 2.743 2.632 5.674 5.087 8.249 7.873 5.35 5.787 10.947 10.82 19.713 9.365.61-.102 1.287.295 1.942.357 13.436 1.274 27.1 5.5 39.706-3.384 4.774-3.365 12.003-3.441 13.972-10.613.185-.673 1.532-1.124 2.416-1.493 7.149-2.976 8.101-4.396 8.118-12.346.006-2.832 0-5.664-.001-8.497 2.041-.019 4.082-.038 6.64.321 3.132 1.115 5.747 1.851 8.361 2.588 1.572 3.93 1.274 7.134-3.059 9.222-1.177.568-1.92 2.035-3.261 3.503-2.302 4.902-7.54 7.427-7.672 13.01-.05 2.095-.65 4.177-1 6.265-4.15 2.868-8.301 5.735-13.157 8.81-3.887.54-7.125.625-10.224 1.325-1.352.306-2.42 1.875-3.616 2.87"/><path fill="#05a20d" d="M508.535 253.056c.464 2.86.47 5.692.464 8.524-.017 7.95-.97 9.37-8.118 12.346-.884.369-2.231.82-2.416 1.493-1.97 7.172-9.198 7.248-13.972 10.613-12.607 8.884-26.27 4.658-39.706 3.384-.655-.062-1.332-.459-1.942-.357-8.766 1.456-14.364-3.578-19.713-9.365-2.575-2.786-5.506-5.24-8.249-7.873-2.309-2.216-3.314-10.061-1.752-13.083.671-1.298 1.242-2.648 1.864-4.352 4.697-.38 9.388-.382 14.536-.004-3.975 7.508 3.306 11.985 4.597 17.82.194.875 2.81 1.35 4.371 1.746 1.581.402 3.282.33 4.866.722 7.176 1.778 14.219 4.577 21.816 3.292 4.796-.81 10.123-.946 14.145-3.248 4.897-2.803 9.038-7.25 12.791-11.601 2.054-2.382 2.634-6.035 3.88-9.115l.002-.726c4.025-.242 8.05-.242 12.536-.216"/><path fill="#05ac09" d="M495.531 253.998c-.78 3.08-1.36 6.733-3.414 9.115-3.753 4.352-7.894 8.798-12.79 11.601-4.023 2.302-9.35 2.437-14.146 3.248-7.597 1.285-14.64-1.514-21.816-3.292-1.584-.393-3.285-.32-4.866-.722-1.562-.397-4.177-.871-4.37-1.745-1.292-5.836-8.573-10.313-4.137-17.817 21.693-.38 43.383-.385 65.539-.388"/><path fill="#129811" d="M524.173 255.734a38 38 0 0 1-8.097-2.315c2.954-.378 5.989-.393 9.478-.39-.099.828-.653 1.638-1.38 2.705M509.366 287.933c-.01-2.03.59-4.111.64-6.207.133-5.582 5.37-8.107 7.632-12.657.634 4.64.552 8.877-4.476 11.791-1.871 1.085-2.332 4.604-3.796 7.073M411.009 282.381c5.413-.272 6.527 3.498 6.985 8.22-4.825-.236-6.056-3.91-6.985-8.22M482.448 300.998c.758-.996 1.826-2.565 3.178-2.87 3.099-.701 6.337-.786 9.941-1.12-2.636 1.32-5.65 2.77-8.78 3.898-1.16.418-2.592.083-4.339.092M426.057 297.349q4.868 2.136 9.882 5.302-4.866-2.136-9.882-5.302M439.263 303.283q4.363-.201 9.481.439-4.363.202-9.48-.44M398.658 258.04c.336 1.03.337 2.093.337 3.554-.89-.153-1.779-.705-2.668-1.256.665-.755 1.33-1.51 2.33-2.299"/></svg>